<?xml version="1.0" encoding="UTF-8" standalone="no"?>
<!DOCTYPE svg PUBLIC "-//W3C//DTD SVG 1.1//EN"
 "http://www.w3.org/Graphics/SVG/1.1/DTD/svg11.dtd">
<!-- Generated by graphviz version 14.1.2 (0)
 -->
<!-- Pages: 1 -->
<svg width="360pt" height="209pt"
 viewBox="0.00 0.00 360.00 209.00" xmlns="http://www.w3.org/2000/svg" xmlns:xlink="http://www.w3.org/1999/xlink">
<g id="graph0" class="graph" transform="scale(0.372045 0.372045) rotate(0) translate(4 557.25)">
<polygon fill="white" stroke="none" points="-4,4 -4,-557.25 963.62,-557.25 963.62,4 -4,4"/>
<!-- 5604521610054544000 -->
<g id="node1" class="node">
<title>5604521610054544000</title>
<g id="a_node1"><a xlink:title="A Blockwise Layer with 36 Tasks.&#10;Array Shape: (10980, 10980)&#10;Data Type: float32&#10;Chunk Size: (2048, 2048)&#10;Chunk Type: numpy.ndarray&#10;">
<polygon fill="none" stroke="black" points="175.12,-409.25 75.12,-409.25 75.12,-373.25 175.12,-373.25 175.12,-409.25"/>
<text xml:space="preserve" text-anchor="middle" x="125.12" y="-382.75" font-family="Helvetica,sans-Serif" font-size="20.00">where&#45;#0</text>
</a>
</g>
</g>
<!-- 3992654532388885002 -->
<g id="node8" class="node">
<title>3992654532388885002</title>
<g id="a_node8"><a xlink:title="A Blockwise Layer with 36 Tasks.&#10;Array Shape: (10980, 10980)&#10;Data Type: float32&#10;Chunk Size: (2048, 2048)&#10;Chunk Type: numpy.ndarray&#10;">
<polygon fill="none" stroke="black" points="163.88,-481.25 86.38,-481.25 86.38,-445.25 163.88,-445.25 163.88,-481.25"/>
<text xml:space="preserve" text-anchor="middle" x="125.12" y="-454.75" font-family="Helvetica,sans-Serif" font-size="20.00">mul&#45;#5</text>
</a>
</g>
</g>
<!-- 5604521610054544000&#45;&gt;3992654532388885002 -->
<g id="edge9" class="edge">
<title>5604521610054544000&#45;&gt;3992654532388885002</title>
<path fill="none" stroke="black" d="M125.12,-409.55C125.12,-416.84 125.12,-425.52 125.12,-433.71"/>
<polygon fill="black" stroke="black" points="121.63,-433.63 125.13,-443.63 128.63,-433.63 121.63,-433.63"/>
</g>
<!-- 7014327633690351119 -->
<g id="node2" class="node">
<title>7014327633690351119</title>
<g id="a_node2"><a xlink:title="A Materialized Layer with 2 Tasks.&#10;">
<polygon fill="none" stroke="black" points="193.88,-36 86.38,-36 86.38,0 193.88,0 193.88,-36"/>
<text xml:space="preserve" text-anchor="middle" x="140.12" y="-9.5" font-family="Helvetica,sans-Serif" font-size="20.00">cfg&#45;red&#45;#1</text>
</a>
</g>
</g>
<!-- 5166554011942527533 -->
<g id="node3" class="node">
<title>5166554011942527533</title>
<g id="a_node3"><a xlink:title="A Materialized Layer with 38 Tasks.&#10;">
<polygon fill="none" stroke="black" points="126.25,-108 0,-108 0,-72 126.25,-72 126.25,-108"/>
<text xml:space="preserve" text-anchor="middle" x="63.12" y="-81.5" font-family="Helvetica,sans-Serif" font-size="20.00">open&#45;red&#45;#1</text>
</a>
</g>
</g>
<!-- 7014327633690351119&#45;&gt;5166554011942527533 -->
<g id="edge3" class="edge">
<title>7014327633690351119&#45;&gt;5166554011942527533</title>
<path fill="none" stroke="black" d="M121.09,-36.3C111.93,-44.63 100.77,-54.78 90.7,-63.93"/>
<polygon fill="black" stroke="black" points="88.37,-61.32 83.33,-70.63 93.08,-66.5 88.37,-61.32"/>
</g>
<!-- 3596663142627419424 -->
<g id="node4" class="node">
<title>3596663142627419424</title>
<g id="a_node4"><a xlink:title="A Materialized Layer with 1368 Tasks.&#10;Array Shape: (38, 10980, 10980)&#10;Data Type: uint16&#10;Chunk Size: (1, 2048, 2048)&#10;Chunk Type: numpy.ndarray&#10;">
<polygon fill="none" stroke="black" points="156.62,-193.25 23.62,-193.25 23.62,-144 156.62,-144 156.62,-193.25"/>
<text xml:space="preserve" text-anchor="middle" x="90.12" y="-151.25" font-family="Helvetica,sans-Serif" font-size="40.00">red&#45;#1</text>
</a>
</g>
</g>
<!-- 7014327633690351119&#45;&gt;3596663142627419424 -->
<g id="edge5" class="edge">
<title>7014327633690351119&#45;&gt;3596663142627419424</title>
<path fill="none" stroke="black" d="M142.06,-36.33C143.46,-54.71 143.81,-84.32 135.12,-108 131.66,-117.47 126.14,-126.68 120.15,-134.93"/>
<polygon fill="black" stroke="black" points="117.57,-132.55 114.19,-142.59 123.09,-136.84 117.57,-132.55"/>
</g>
<!-- 5166554011942527533&#45;&gt;3596663142627419424 -->
<g id="edge4" class="edge">
<title>5166554011942527533&#45;&gt;3596663142627419424</title>
<path fill="none" stroke="black" d="M69.25,-108.39C71.8,-115.63 74.87,-124.32 77.85,-132.78"/>
<polygon fill="black" stroke="black" points="74.54,-133.93 81.17,-142.2 81.14,-131.6 74.54,-133.93"/>
</g>
<!-- 8939679592509833735 -->
<g id="node5" class="node">
<title>8939679592509833735</title>
<g id="a_node5"><a xlink:title="A Materialized Layer with 36 Tasks.&#10;Array Shape: (10980, 10980)&#10;Data Type: uint16&#10;Chunk Size: (2048, 2048)&#10;Chunk Type: numpy.ndarray&#10;">
<polygon fill="none" stroke="black" points="145.38,-265.25 34.88,-265.25 34.88,-229.25 145.38,-229.25 145.38,-265.25"/>
<text xml:space="preserve" text-anchor="middle" x="90.12" y="-238.75" font-family="Helvetica,sans-Serif" font-size="20.00">getitem&#45;#2</text>
</a>
</g>
</g>
<!-- 3596663142627419424&#45;&gt;8939679592509833735 -->
<g id="edge6" class="edge">
<title>3596663142627419424&#45;&gt;8939679592509833735</title>
<path fill="none" stroke="black" d="M90.12,-193.45C90.12,-201.03 90.12,-209.51 90.12,-217.41"/>
<polygon fill="black" stroke="black" points="86.63,-217.26 90.13,-227.26 93.63,-217.26 86.63,-217.26"/>
</g>
<!-- &#45;6737324296934386737 -->
<g id="node6" class="node">
<title>&#45;6737324296934386737</title>
<g id="a_node6"><a xlink:title="A Blockwise Layer with 36 Tasks.&#10;Array Shape: (10980, 10980)&#10;Data Type: bool&#10;Chunk Size: (2048, 2048)&#10;Chunk Type: numpy.ndarray&#10;">
<polygon fill="none" stroke="black" points="107,-337.25 39.25,-337.25 39.25,-301.25 107,-301.25 107,-337.25"/>
<text xml:space="preserve" text-anchor="middle" x="73.12" y="-310.75" font-family="Helvetica,sans-Serif" font-size="20.00">ne&#45;#3</text>
</a>
</g>
</g>
<!-- 8939679592509833735&#45;&gt;&#45;6737324296934386737 -->
<g id="edge7" class="edge">
<title>8939679592509833735&#45;&gt;&#45;6737324296934386737</title>
<path fill="none" stroke="black" d="M85.92,-265.55C84.13,-272.93 82,-281.73 79.99,-290"/>
<polygon fill="black" stroke="black" points="76.6,-289.13 77.64,-299.67 83.4,-290.78 76.6,-289.13"/>
</g>
<!-- 3813188762563087642 -->
<g id="node7" class="node">
<title>3813188762563087642</title>
<g id="a_node7"><a xlink:title="A Blockwise Layer with 36 Tasks.&#10;Array Shape: (10980, 10980)&#10;Data Type: float32&#10;Chunk Size: (2048, 2048)&#10;Chunk Type: numpy.ndarray&#10;">
<polygon fill="none" stroke="black" points="229,-337.25 125.25,-337.25 125.25,-301.25 229,-301.25 229,-337.25"/>
<text xml:space="preserve" text-anchor="middle" x="177.12" y="-310.75" font-family="Helvetica,sans-Serif" font-size="20.00">astype&#45;#4</text>
</a>
</g>
</g>
<!-- 8939679592509833735&#45;&gt;3813188762563087642 -->
<g id="edge8" class="edge">
<title>8939679592509833735&#45;&gt;3813188762563087642</title>
<path fill="none" stroke="black" d="M111.63,-265.55C122.19,-274.05 135.1,-284.44 146.66,-293.74"/>
<polygon fill="black" stroke="black" points="144.4,-296.41 154.39,-299.95 148.79,-290.96 144.4,-296.41"/>
</g>
<!-- &#45;6737324296934386737&#45;&gt;5604521610054544000 -->
<g id="edge2" class="edge">
<title>&#45;6737324296934386737&#45;&gt;5604521610054544000</title>
<path fill="none" stroke="black" d="M85.98,-337.55C91.9,-345.52 99.05,-355.15 105.61,-363.99"/>
<polygon fill="black" stroke="black" points="102.74,-365.99 111.52,-371.93 108.36,-361.82 102.74,-365.99"/>
</g>
<!-- 3813188762563087642&#45;&gt;5604521610054544000 -->
<g id="edge1" class="edge">
<title>3813188762563087642&#45;&gt;5604521610054544000</title>
<path fill="none" stroke="black" d="M164.27,-337.55C158.35,-345.52 151.2,-355.15 144.64,-363.99"/>
<polygon fill="black" stroke="black" points="141.89,-361.82 138.73,-371.93 147.51,-365.99 141.89,-361.82"/>
</g>
<!-- 4334396162785458570 -->
<g id="node9" class="node">
<title>4334396162785458570</title>
<g id="a_node9"><a xlink:title="A Blockwise Layer with 36 Tasks.&#10;Array Shape: (10980, 10980)&#10;Data Type: float32&#10;Chunk Size: (2048, 2048)&#10;Chunk Type: numpy.ndarray&#10;">
<polygon fill="none" stroke="black" points="164.62,-553.25 85.62,-553.25 85.62,-517.25 164.62,-517.25 164.62,-553.25"/>
<text xml:space="preserve" text-anchor="middle" x="125.12" y="-526.75" font-family="Helvetica,sans-Serif" font-size="20.00">add&#45;#6</text>
</a>
</g>
</g>
<!-- 3992654532388885002&#45;&gt;4334396162785458570 -->
<g id="edge10" class="edge">
<title>3992654532388885002&#45;&gt;4334396162785458570</title>
<path fill="none" stroke="black" d="M125.12,-481.55C125.12,-488.84 125.12,-497.52 125.12,-505.71"/>
<polygon fill="black" stroke="black" points="121.63,-505.63 125.13,-515.63 128.63,-505.63 121.63,-505.63"/>
</g>
<!-- &#45;6887361478423131811 -->
<g id="node10" class="node">
<title>&#45;6887361478423131811</title>
<g id="a_node10"><a xlink:title="A Blockwise Layer with 36 Tasks.&#10;Array Shape: (10980, 10980)&#10;Data Type: float32&#10;Chunk Size: (2048, 2048)&#10;Chunk Type: numpy.ndarray&#10;">
<polygon fill="none" stroke="black" points="408.12,-409.25 308.12,-409.25 308.12,-373.25 408.12,-373.25 408.12,-409.25"/>
<text xml:space="preserve" text-anchor="middle" x="358.12" y="-382.75" font-family="Helvetica,sans-Serif" font-size="20.00">where&#45;#7</text>
</a>
</g>
</g>
<!-- 464443277883470910 -->
<g id="node17" class="node">
<title>464443277883470910</title>
<g id="a_node17"><a xlink:title="A Blockwise Layer with 36 Tasks.&#10;Array Shape: (10980, 10980)&#10;Data Type: float32&#10;Chunk Size: (2048, 2048)&#10;Chunk Type: numpy.ndarray&#10;">
<polygon fill="none" stroke="black" points="401.75,-481.25 314.5,-481.25 314.5,-445.25 401.75,-445.25 401.75,-481.25"/>
<text xml:space="preserve" text-anchor="middle" x="358.12" y="-454.75" font-family="Helvetica,sans-Serif" font-size="20.00">mul&#45;#11</text>
</a>
</g>
</g>
<!-- &#45;6887361478423131811&#45;&gt;464443277883470910 -->
<g id="edge19" class="edge">
<title>&#45;6887361478423131811&#45;&gt;464443277883470910</title>
<path fill="none" stroke="black" d="M358.12,-409.55C358.12,-416.84 358.12,-425.52 358.12,-433.71"/>
<polygon fill="black" stroke="black" points="354.63,-433.63 358.13,-443.63 361.63,-433.63 354.63,-433.63"/>
</g>
<!-- 7150468580936251589 -->
<g id="node11" class="node">
<title>7150468580936251589</title>
<g id="a_node11"><a xlink:title="A Materialized Layer with 2 Tasks.&#10;">
<polygon fill="none" stroke="black" points="377.12,-36 247.12,-36 247.12,0 377.12,0 377.12,-36"/>
<text xml:space="preserve" text-anchor="middle" x="312.12" y="-9.5" font-family="Helvetica,sans-Serif" font-size="20.00">cfg&#45;green&#45;#1</text>
</a>
</g>
</g>
<!-- 8783242558592541887 -->
<g id="node12" class="node">
<title>8783242558592541887</title>
<g id="a_node12"><a xlink:title="A Materialized Layer with 38 Tasks.&#10;">
<polygon fill="none" stroke="black" points="372.5,-108 223.75,-108 223.75,-72 372.5,-72 372.5,-108"/>
<text xml:space="preserve" text-anchor="middle" x="298.12" y="-81.5" font-family="Helvetica,sans-Serif" font-size="20.00">open&#45;green&#45;#1</text>
</a>
</g>
</g>
<!-- 7150468580936251589&#45;&gt;8783242558592541887 -->
<g id="edge13" class="edge">
<title>7150468580936251589&#45;&gt;8783242558592541887</title>
<path fill="none" stroke="black" d="M308.66,-36.3C307.19,-43.68 305.43,-52.48 303.78,-60.75"/>
<polygon fill="black" stroke="black" points="300.37,-59.92 301.84,-70.41 307.24,-61.29 300.37,-59.92"/>
</g>
<!-- &#45;5671815508288062898 -->
<g id="node13" class="node">
<title>&#45;5671815508288062898</title>
<g id="a_node13"><a xlink:title="A Materialized Layer with 1368 Tasks.&#10;Array Shape: (38, 10980, 10980)&#10;Data Type: uint16&#10;Chunk Size: (1, 2048, 2048)&#10;Chunk Type: numpy.ndarray&#10;">
<polygon fill="none" stroke="black" points="410.12,-193.25 232.12,-193.25 232.12,-144 410.12,-144 410.12,-193.25"/>
<text xml:space="preserve" text-anchor="middle" x="321.12" y="-151.25" font-family="Helvetica,sans-Serif" font-size="40.00">green&#45;#1</text>
</a>
</g>
</g>
<!-- 7150468580936251589&#45;&gt;&#45;5671815508288062898 -->
<g id="edge14" class="edge">
<title>7150468580936251589&#45;&gt;&#45;5671815508288062898</title>
<path fill="none" stroke="black" d="M346.32,-36.27C359.76,-45 373.71,-56.96 381.12,-72 388.2,-86.35 387.27,-93.23 381.12,-108 376.9,-118.16 370,-127.49 362.36,-135.59"/>
<polygon fill="black" stroke="black" points="359.98,-133.02 355.29,-142.52 364.88,-138.02 359.98,-133.02"/>
</g>
<!-- 8783242558592541887&#45;&gt;&#45;5671815508288062898 -->
<g id="edge15" class="edge">
<title>8783242558592541887&#45;&gt;&#45;5671815508288062898</title>
<path fill="none" stroke="black" d="M303.34,-108.39C305.52,-115.63 308.13,-124.32 310.67,-132.78"/>
<polygon fill="black" stroke="black" points="307.26,-133.61 313.49,-142.18 313.96,-131.59 307.26,-133.61"/>
</g>
<!-- 5979584344400977617 -->
<g id="node14" class="node">
<title>5979584344400977617</title>
<g id="a_node14"><a xlink:title="A Materialized Layer with 36 Tasks.&#10;Array Shape: (10980, 10980)&#10;Data Type: uint16&#10;Chunk Size: (2048, 2048)&#10;Chunk Type: numpy.ndarray&#10;">
<polygon fill="none" stroke="black" points="376.38,-265.25 265.88,-265.25 265.88,-229.25 376.38,-229.25 376.38,-265.25"/>
<text xml:space="preserve" text-anchor="middle" x="321.12" y="-238.75" font-family="Helvetica,sans-Serif" font-size="20.00">getitem&#45;#8</text>
</a>
</g>
</g>
<!-- &#45;5671815508288062898&#45;&gt;5979584344400977617 -->
<g id="edge16" class="edge">
<title>&#45;5671815508288062898&#45;&gt;5979584344400977617</title>
<path fill="none" stroke="black" d="M321.12,-193.45C321.12,-201.03 321.12,-209.51 321.12,-217.41"/>
<polygon fill="black" stroke="black" points="317.63,-217.26 321.13,-227.26 324.63,-217.26 317.63,-217.26"/>
</g>
<!-- &#45;1894645734811827353 -->
<g id="node15" class="node">
<title>&#45;1894645734811827353</title>
<g id="a_node15"><a xlink:title="A Blockwise Layer with 36 Tasks.&#10;Array Shape: (10980, 10980)&#10;Data Type: bool&#10;Chunk Size: (2048, 2048)&#10;Chunk Type: numpy.ndarray&#10;">
<polygon fill="none" stroke="black" points="337,-337.25 269.25,-337.25 269.25,-301.25 337,-301.25 337,-337.25"/>
<text xml:space="preserve" text-anchor="middle" x="303.12" y="-310.75" font-family="Helvetica,sans-Serif" font-size="20.00">ne&#45;#9</text>
</a>
</g>
</g>
<!-- 5979584344400977617&#45;&gt;&#45;1894645734811827353 -->
<g id="edge17" class="edge">
<title>5979584344400977617&#45;&gt;&#45;1894645734811827353</title>
<path fill="none" stroke="black" d="M316.68,-265.55C314.78,-272.93 312.52,-281.73 310.39,-290"/>
<polygon fill="black" stroke="black" points="307,-289.12 307.9,-299.68 313.78,-290.87 307,-289.12"/>
</g>
<!-- &#45;7461073910702342095 -->
<g id="node16" class="node">
<title>&#45;7461073910702342095</title>
<g id="a_node16"><a xlink:title="A Blockwise Layer with 36 Tasks.&#10;Array Shape: (10980, 10980)&#10;Data Type: float32&#10;Chunk Size: (2048, 2048)&#10;Chunk Type: numpy.ndarray&#10;">
<polygon fill="none" stroke="black" points="469.62,-337.25 354.62,-337.25 354.62,-301.25 469.62,-301.25 469.62,-337.25"/>
<text xml:space="preserve" text-anchor="middle" x="412.12" y="-310.75" font-family="Helvetica,sans-Serif" font-size="20.00">astype&#45;#10</text>
</a>
</g>
</g>
<!-- 5979584344400977617&#45;&gt;&#45;7461073910702342095 -->
<g id="edge18" class="edge">
<title>5979584344400977617&#45;&gt;&#45;7461073910702342095</title>
<path fill="none" stroke="black" d="M343.62,-265.55C354.78,-274.14 368.44,-284.64 380.62,-294.01"/>
<polygon fill="black" stroke="black" points="378.31,-296.66 388.37,-299.98 382.58,-291.11 378.31,-296.66"/>
</g>
<!-- &#45;1894645734811827353&#45;&gt;&#45;6887361478423131811 -->
<g id="edge12" class="edge">
<title>&#45;1894645734811827353&#45;&gt;&#45;6887361478423131811</title>
<path fill="none" stroke="black" d="M316.72,-337.55C323.05,-345.61 330.71,-355.36 337.71,-364.27"/>
<polygon fill="black" stroke="black" points="334.82,-366.25 343.75,-371.96 340.32,-361.93 334.82,-366.25"/>
</g>
<!-- &#45;7461073910702342095&#45;&gt;&#45;6887361478423131811 -->
<g id="edge11" class="edge">
<title>&#45;7461073910702342095&#45;&gt;&#45;6887361478423131811</title>
<path fill="none" stroke="black" d="M398.78,-337.55C392.56,-345.61 385.04,-355.36 378.17,-364.27"/>
<polygon fill="black" stroke="black" points="375.58,-361.89 372.24,-371.95 381.12,-366.17 375.58,-361.89"/>
</g>
<!-- &#45;7289219560102736053 -->
<g id="node18" class="node">
<title>&#45;7289219560102736053</title>
<g id="a_node18"><a xlink:title="A Blockwise Layer with 36 Tasks.&#10;Array Shape: (10980, 10980)&#10;Data Type: float32&#10;Chunk Size: (2048, 2048)&#10;Chunk Type: numpy.ndarray&#10;">
<polygon fill="none" stroke="black" points="403.25,-553.25 313,-553.25 313,-517.25 403.25,-517.25 403.25,-553.25"/>
<text xml:space="preserve" text-anchor="middle" x="358.12" y="-526.75" font-family="Helvetica,sans-Serif" font-size="20.00">add&#45;#12</text>
</a>
</g>
</g>
<!-- 464443277883470910&#45;&gt;&#45;7289219560102736053 -->
<g id="edge20" class="edge">
<title>464443277883470910&#45;&gt;&#45;7289219560102736053</title>
<path fill="none" stroke="black" d="M358.12,-481.55C358.12,-488.84 358.12,-497.52 358.12,-505.71"/>
<polygon fill="black" stroke="black" points="354.63,-505.63 358.13,-515.63 361.63,-505.63 354.63,-505.63"/>
</g>
<!-- 9197471046635065836 -->
<g id="node19" class="node">
<title>9197471046635065836</title>
<g id="a_node19"><a xlink:title="A Blockwise Layer with 36 Tasks.&#10;Array Shape: (10980, 10980)&#10;Data Type: float32&#10;Chunk Size: (2048, 2048)&#10;Chunk Type: numpy.ndarray&#10;">
<polygon fill="none" stroke="black" points="682.75,-409.25 571.5,-409.25 571.5,-373.25 682.75,-373.25 682.75,-409.25"/>
<text xml:space="preserve" text-anchor="middle" x="627.12" y="-382.75" font-family="Helvetica,sans-Serif" font-size="20.00">where&#45;#13</text>
</a>
</g>
</g>
<!-- 3825267319295138010 -->
<g id="node26" class="node">
<title>3825267319295138010</title>
<g id="a_node26"><a xlink:title="A Blockwise Layer with 36 Tasks.&#10;Array Shape: (10980, 10980)&#10;Data Type: float32&#10;Chunk Size: (2048, 2048)&#10;Chunk Type: numpy.ndarray&#10;">
<polygon fill="none" stroke="black" points="671.5,-481.25 582.75,-481.25 582.75,-445.25 671.5,-445.25 671.5,-481.25"/>
<text xml:space="preserve" text-anchor="middle" x="627.12" y="-454.75" font-family="Helvetica,sans-Serif" font-size="20.00">mul&#45;#17</text>
</a>
</g>
</g>
<!-- 9197471046635065836&#45;&gt;3825267319295138010 -->
<g id="edge29" class="edge">
<title>9197471046635065836&#45;&gt;3825267319295138010</title>
<path fill="none" stroke="black" d="M627.12,-409.55C627.12,-416.84 627.12,-425.52 627.12,-433.71"/>
<polygon fill="black" stroke="black" points="623.63,-433.63 627.13,-443.63 630.63,-433.63 623.63,-433.63"/>
</g>
<!-- 8370544073950156622 -->
<g id="node20" class="node">
<title>8370544073950156622</title>
<g id="a_node20"><a xlink:title="A Materialized Layer with 2 Tasks.&#10;">
<polygon fill="none" stroke="black" points="642.38,-36 525.88,-36 525.88,0 642.38,0 642.38,-36"/>
<text xml:space="preserve" text-anchor="middle" x="584.12" y="-9.5" font-family="Helvetica,sans-Serif" font-size="20.00">cfg&#45;blue&#45;#1</text>
</a>
</g>
</g>
<!-- 3681690157330099555 -->
<g id="node21" class="node">
<title>3681690157330099555</title>
<g id="a_node21"><a xlink:title="A Materialized Layer with 38 Tasks.&#10;">
<polygon fill="none" stroke="black" points="603.75,-108 468.5,-108 468.5,-72 603.75,-72 603.75,-108"/>
<text xml:space="preserve" text-anchor="middle" x="536.12" y="-81.5" font-family="Helvetica,sans-Serif" font-size="20.00">open&#45;blue&#45;#1</text>
</a>
</g>
</g>
<!-- 8370544073950156622&#45;&gt;3681690157330099555 -->
<g id="edge23" class="edge">
<title>8370544073950156622&#45;&gt;3681690157330099555</title>
<path fill="none" stroke="black" d="M572.26,-36.3C566.85,-44.19 560.33,-53.7 554.33,-62.45"/>
<polygon fill="black" stroke="black" points="551.48,-60.42 548.71,-70.65 557.25,-64.38 551.48,-60.42"/>
</g>
<!-- &#45;3007023410487156075 -->
<g id="node22" class="node">
<title>&#45;3007023410487156075</title>
<g id="a_node22"><a xlink:title="A Materialized Layer with 1368 Tasks.&#10;Array Shape: (38, 10980, 10980)&#10;Data Type: uint16&#10;Chunk Size: (1, 2048, 2048)&#10;Chunk Type: numpy.ndarray&#10;">
<polygon fill="none" stroke="black" points="624.62,-193.25 473.62,-193.25 473.62,-144 624.62,-144 624.62,-193.25"/>
<text xml:space="preserve" text-anchor="middle" x="549.12" y="-151.25" font-family="Helvetica,sans-Serif" font-size="40.00">blue&#45;#1</text>
</a>
</g>
</g>
<!-- 8370544073950156622&#45;&gt;&#45;3007023410487156075 -->
<g id="edge25" class="edge">
<title>8370544073950156622&#45;&gt;&#45;3007023410487156075</title>
<path fill="none" stroke="black" d="M597.23,-36.42C609.23,-54.63 623.63,-83.86 613.12,-108 608.58,-118.44 601.21,-127.89 593.05,-136.02"/>
<polygon fill="black" stroke="black" points="590.81,-133.32 585.82,-142.67 595.55,-138.47 590.81,-133.32"/>
</g>
<!-- 3681690157330099555&#45;&gt;&#45;3007023410487156075 -->
<g id="edge24" class="edge">
<title>3681690157330099555&#45;&gt;&#45;3007023410487156075</title>
<path fill="none" stroke="black" d="M539.07,-108.39C540.29,-115.55 541.74,-124.12 543.16,-132.49"/>
<polygon fill="black" stroke="black" points="539.68,-132.86 544.8,-142.13 546.58,-131.69 539.68,-132.86"/>
</g>
<!-- 694872898841628676 -->
<g id="node23" class="node">
<title>694872898841628676</title>
<g id="a_node23"><a xlink:title="A Materialized Layer with 36 Tasks.&#10;Array Shape: (10980, 10980)&#10;Data Type: uint16&#10;Chunk Size: (2048, 2048)&#10;Chunk Type: numpy.ndarray&#10;">
<polygon fill="none" stroke="black" points="610,-265.25 488.25,-265.25 488.25,-229.25 610,-229.25 610,-265.25"/>
<text xml:space="preserve" text-anchor="middle" x="549.12" y="-238.75" font-family="Helvetica,sans-Serif" font-size="20.00">getitem&#45;#14</text>
</a>
</g>
</g>
<!-- &#45;3007023410487156075&#45;&gt;694872898841628676 -->
<g id="edge26" class="edge">
<title>&#45;3007023410487156075&#45;&gt;694872898841628676</title>
<path fill="none" stroke="black" d="M549.12,-193.45C549.12,-201.03 549.12,-209.51 549.12,-217.41"/>
<polygon fill="black" stroke="black" points="545.63,-217.26 549.13,-227.26 552.63,-217.26 545.63,-217.26"/>
</g>
<!-- &#45;8009903102413446673 -->
<g id="node24" class="node">
<title>&#45;8009903102413446673</title>
<g id="a_node24"><a xlink:title="A Blockwise Layer with 36 Tasks.&#10;Array Shape: (10980, 10980)&#10;Data Type: bool&#10;Chunk Size: (2048, 2048)&#10;Chunk Type: numpy.ndarray&#10;">
<polygon fill="none" stroke="black" points="566.62,-337.25 487.62,-337.25 487.62,-301.25 566.62,-301.25 566.62,-337.25"/>
<text xml:space="preserve" text-anchor="middle" x="527.12" y="-310.75" font-family="Helvetica,sans-Serif" font-size="20.00">ne&#45;#15</text>
</a>
</g>
</g>
<!-- 694872898841628676&#45;&gt;&#45;8009903102413446673 -->
<g id="edge27" class="edge">
<title>694872898841628676&#45;&gt;&#45;8009903102413446673</title>
<path fill="none" stroke="black" d="M543.69,-265.55C541.34,-273.01 538.54,-281.93 535.91,-290.28"/>
<polygon fill="black" stroke="black" points="532.61,-289.11 532.95,-299.7 539.29,-291.21 532.61,-289.11"/>
</g>
<!-- &#45;5203934459935637563 -->
<g id="node25" class="node">
<title>&#45;5203934459935637563</title>
<g id="a_node25"><a xlink:title="A Blockwise Layer with 36 Tasks.&#10;Array Shape: (10980, 10980)&#10;Data Type: float32&#10;Chunk Size: (2048, 2048)&#10;Chunk Type: numpy.ndarray&#10;">
<polygon fill="none" stroke="black" points="699.62,-337.25 584.62,-337.25 584.62,-301.25 699.62,-301.25 699.62,-337.25"/>
<text xml:space="preserve" text-anchor="middle" x="642.12" y="-310.75" font-family="Helvetica,sans-Serif" font-size="20.00">astype&#45;#16</text>
</a>
</g>
</g>
<!-- 694872898841628676&#45;&gt;&#45;5203934459935637563 -->
<g id="edge28" class="edge">
<title>694872898841628676&#45;&gt;&#45;5203934459935637563</title>
<path fill="none" stroke="black" d="M572.11,-265.55C583.52,-274.14 597.48,-284.64 609.92,-294.01"/>
<polygon fill="black" stroke="black" points="607.77,-296.78 617.87,-299.99 611.98,-291.18 607.77,-296.78"/>
</g>
<!-- &#45;8009903102413446673&#45;&gt;9197471046635065836 -->
<g id="edge22" class="edge">
<title>&#45;8009903102413446673&#45;&gt;9197471046635065836</title>
<path fill="none" stroke="black" d="M552.1,-337.73C564.48,-346.4 579.63,-357 593.05,-366.4"/>
<polygon fill="black" stroke="black" points="591.03,-369.25 601.23,-372.12 595.04,-363.52 591.03,-369.25"/>
</g>
<!-- &#45;5203934459935637563&#45;&gt;9197471046635065836 -->
<g id="edge21" class="edge">
<title>&#45;5203934459935637563&#45;&gt;9197471046635065836</title>
<path fill="none" stroke="black" d="M638.42,-337.55C636.84,-344.93 634.95,-353.73 633.18,-362"/>
<polygon fill="black" stroke="black" points="629.78,-361.15 631.11,-371.67 636.63,-362.62 629.78,-361.15"/>
</g>
<!-- &#45;8461565158902695478 -->
<g id="node27" class="node">
<title>&#45;8461565158902695478</title>
<g id="a_node27"><a xlink:title="A Blockwise Layer with 36 Tasks.&#10;Array Shape: (10980, 10980)&#10;Data Type: float32&#10;Chunk Size: (2048, 2048)&#10;Chunk Type: numpy.ndarray&#10;">
<polygon fill="none" stroke="black" points="672.25,-553.25 582,-553.25 582,-517.25 672.25,-517.25 672.25,-553.25"/>
<text xml:space="preserve" text-anchor="middle" x="627.12" y="-526.75" font-family="Helvetica,sans-Serif" font-size="20.00">add&#45;#18</text>
</a>
</g>
</g>
<!-- 3825267319295138010&#45;&gt;&#45;8461565158902695478 -->
<g id="edge30" class="edge">
<title>3825267319295138010&#45;&gt;&#45;8461565158902695478</title>
<path fill="none" stroke="black" d="M627.12,-481.55C627.12,-488.84 627.12,-497.52 627.12,-505.71"/>
<polygon fill="black" stroke="black" points="623.63,-505.63 627.13,-515.63 630.63,-505.63 623.63,-505.63"/>
</g>
<!-- &#45;3509238937401039866 -->
<g id="node28" class="node">
<title>&#45;3509238937401039866</title>
<g id="a_node28"><a xlink:title="A Blockwise Layer with 36 Tasks.&#10;Array Shape: (10980, 10980)&#10;Data Type: float32&#10;Chunk Size: (2048, 2048)&#10;Chunk Type: numpy.ndarray&#10;">
<polygon fill="none" stroke="black" points="857.75,-409.25 746.5,-409.25 746.5,-373.25 857.75,-373.25 857.75,-409.25"/>
<text xml:space="preserve" text-anchor="middle" x="802.12" y="-382.75" font-family="Helvetica,sans-Serif" font-size="20.00">where&#45;#19</text>
</a>
</g>
</g>
<!-- &#45;6311513585071791636 -->
<g id="node35" class="node">
<title>&#45;6311513585071791636</title>
<g id="a_node35"><a xlink:title="A Blockwise Layer with 36 Tasks.&#10;Array Shape: (10980, 10980)&#10;Data Type: float32&#10;Chunk Size: (2048, 2048)&#10;Chunk Type: numpy.ndarray&#10;">
<polygon fill="none" stroke="black" points="846.5,-481.25 757.75,-481.25 757.75,-445.25 846.5,-445.25 846.5,-481.25"/>
<text xml:space="preserve" text-anchor="middle" x="802.12" y="-454.75" font-family="Helvetica,sans-Serif" font-size="20.00">mul&#45;#23</text>
</a>
</g>
</g>
<!-- &#45;3509238937401039866&#45;&gt;&#45;6311513585071791636 -->
<g id="edge39" class="edge">
<title>&#45;3509238937401039866&#45;&gt;&#45;6311513585071791636</title>
<path fill="none" stroke="black" d="M802.12,-409.55C802.12,-416.84 802.12,-425.52 802.12,-433.71"/>
<polygon fill="black" stroke="black" points="798.63,-433.63 802.13,-443.63 805.63,-433.63 798.63,-433.63"/>
</g>
<!-- &#45;7178509653798438239 -->
<g id="node29" class="node">
<title>&#45;7178509653798438239</title>
<g id="a_node29"><a xlink:title="A Materialized Layer with 2 Tasks.&#10;">
<polygon fill="none" stroke="black" points="894.5,-36 793.75,-36 793.75,0 894.5,0 894.5,-36"/>
<text xml:space="preserve" text-anchor="middle" x="844.12" y="-9.5" font-family="Helvetica,sans-Serif" font-size="20.00">cfg&#45;nir&#45;#1</text>
</a>
</g>
</g>
<!-- &#45;5143817753822244159 -->
<g id="node30" class="node">
<title>&#45;5143817753822244159</title>
<g id="a_node30"><a xlink:title="A Materialized Layer with 38 Tasks.&#10;">
<polygon fill="none" stroke="black" points="859.88,-108 740.38,-108 740.38,-72 859.88,-72 859.88,-108"/>
<text xml:space="preserve" text-anchor="middle" x="800.12" y="-81.5" font-family="Helvetica,sans-Serif" font-size="20.00">open&#45;nir&#45;#1</text>
</a>
</g>
</g>
<!-- &#45;7178509653798438239&#45;&gt;&#45;5143817753822244159 -->
<g id="edge33" class="edge">
<title>&#45;7178509653798438239&#45;&gt;&#45;5143817753822244159</title>
<path fill="none" stroke="black" d="M833.25,-36.3C828.35,-44.1 822.44,-53.49 816.99,-62.17"/>
<polygon fill="black" stroke="black" points="814.04,-60.29 811.68,-70.61 819.97,-64.01 814.04,-60.29"/>
</g>
<!-- &#45;7753122162943152217 -->
<g id="node31" class="node">
<title>&#45;7753122162943152217</title>
<g id="a_node31"><a xlink:title="A Materialized Layer with 1368 Tasks.&#10;Array Shape: (38, 10980, 10980)&#10;Data Type: uint16&#10;Chunk Size: (1, 2048, 2048)&#10;Chunk Type: numpy.ndarray&#10;">
<polygon fill="none" stroke="black" points="903.88,-193.25 784.38,-193.25 784.38,-144 903.88,-144 903.88,-193.25"/>
<text xml:space="preserve" text-anchor="middle" x="844.12" y="-151.25" font-family="Helvetica,sans-Serif" font-size="40.00">nir&#45;#1</text>
</a>
</g>
</g>
<!-- &#45;7178509653798438239&#45;&gt;&#45;7753122162943152217 -->
<g id="edge34" class="edge">
<title>&#45;7178509653798438239&#45;&gt;&#45;7753122162943152217</title>
<path fill="none" stroke="black" d="M854.75,-36.44C860.22,-46.46 866.32,-59.49 869.12,-72 872.62,-87.61 872.28,-92.31 869.12,-108 867.44,-116.4 864.53,-125.09 861.29,-133.15"/>
<polygon fill="black" stroke="black" points="858.1,-131.71 857.34,-142.28 864.52,-134.49 858.1,-131.71"/>
</g>
<!-- &#45;5143817753822244159&#45;&gt;&#45;7753122162943152217 -->
<g id="edge35" class="edge">
<title>&#45;5143817753822244159&#45;&gt;&#45;7753122162943152217</title>
<path fill="none" stroke="black" d="M810.11,-108.39C814.46,-115.96 819.71,-125.1 824.77,-133.92"/>
<polygon fill="black" stroke="black" points="821.58,-135.39 829.59,-142.31 827.65,-131.9 821.58,-135.39"/>
</g>
<!-- &#45;8115835903543937750 -->
<g id="node32" class="node">
<title>&#45;8115835903543937750</title>
<g id="a_node32"><a xlink:title="A Materialized Layer with 36 Tasks.&#10;Array Shape: (10980, 10980)&#10;Data Type: uint16&#10;Chunk Size: (2048, 2048)&#10;Chunk Type: numpy.ndarray&#10;">
<polygon fill="none" stroke="black" points="905,-265.25 783.25,-265.25 783.25,-229.25 905,-229.25 905,-265.25"/>
<text xml:space="preserve" text-anchor="middle" x="844.12" y="-238.75" font-family="Helvetica,sans-Serif" font-size="20.00">getitem&#45;#20</text>
</a>
</g>
</g>
<!-- &#45;7753122162943152217&#45;&gt;&#45;8115835903543937750 -->
<g id="edge36" class="edge">
<title>&#45;7753122162943152217&#45;&gt;&#45;8115835903543937750</title>
<path fill="none" stroke="black" d="M844.12,-193.45C844.12,-201.03 844.12,-209.51 844.12,-217.41"/>
<polygon fill="black" stroke="black" points="840.63,-217.26 844.13,-227.26 847.63,-217.26 840.63,-217.26"/>
</g>
<!-- 603087573397058134 -->
<g id="node33" class="node">
<title>603087573397058134</title>
<g id="a_node33"><a xlink:title="A Blockwise Layer with 36 Tasks.&#10;Array Shape: (10980, 10980)&#10;Data Type: bool&#10;Chunk Size: (2048, 2048)&#10;Chunk Type: numpy.ndarray&#10;">
<polygon fill="none" stroke="black" points="826.62,-337.25 747.62,-337.25 747.62,-301.25 826.62,-301.25 826.62,-337.25"/>
<text xml:space="preserve" text-anchor="middle" x="787.12" y="-310.75" font-family="Helvetica,sans-Serif" font-size="20.00">ne&#45;#21</text>
</a>
</g>
</g>
<!-- &#45;8115835903543937750&#45;&gt;603087573397058134 -->
<g id="edge37" class="edge">
<title>&#45;8115835903543937750&#45;&gt;603087573397058134</title>
<path fill="none" stroke="black" d="M830.04,-265.55C823.48,-273.61 815.54,-283.36 808.28,-292.27"/>
<polygon fill="black" stroke="black" points="805.61,-290.01 802.01,-299.97 811.04,-294.43 805.61,-290.01"/>
</g>
<!-- 8811748392387680416 -->
<g id="node34" class="node">
<title>8811748392387680416</title>
<g id="a_node34"><a xlink:title="A Blockwise Layer with 36 Tasks.&#10;Array Shape: (10980, 10980)&#10;Data Type: float32&#10;Chunk Size: (2048, 2048)&#10;Chunk Type: numpy.ndarray&#10;">
<polygon fill="none" stroke="black" points="959.62,-337.25 844.62,-337.25 844.62,-301.25 959.62,-301.25 959.62,-337.25"/>
<text xml:space="preserve" text-anchor="middle" x="902.12" y="-310.75" font-family="Helvetica,sans-Serif" font-size="20.00">astype&#45;#22</text>
</a>
</g>
</g>
<!-- &#45;8115835903543937750&#45;&gt;8811748392387680416 -->
<g id="edge38" class="edge">
<title>&#45;8115835903543937750&#45;&gt;8811748392387680416</title>
<path fill="none" stroke="black" d="M858.46,-265.55C865.2,-273.69 873.38,-283.56 880.83,-292.55"/>
<polygon fill="black" stroke="black" points="877.91,-294.51 886.99,-299.98 883.3,-290.05 877.91,-294.51"/>
</g>
<!-- 603087573397058134&#45;&gt;&#45;3509238937401039866 -->
<g id="edge32" class="edge">
<title>603087573397058134&#45;&gt;&#45;3509238937401039866</title>
<path fill="none" stroke="black" d="M790.83,-337.55C792.41,-344.93 794.3,-353.73 796.07,-362"/>
<polygon fill="black" stroke="black" points="792.62,-362.62 798.14,-371.67 799.47,-361.15 792.62,-362.62"/>
</g>
<!-- 8811748392387680416&#45;&gt;&#45;3509238937401039866 -->
<g id="edge31" class="edge">
<title>8811748392387680416&#45;&gt;&#45;3509238937401039866</title>
<path fill="none" stroke="black" d="M877.15,-337.73C864.77,-346.4 849.62,-357 836.2,-366.4"/>
<polygon fill="black" stroke="black" points="834.21,-363.52 828.02,-372.12 838.22,-369.25 834.21,-363.52"/>
</g>
<!-- 1471446770691571879 -->
<g id="node36" class="node">
<title>1471446770691571879</title>
<g id="a_node36"><a xlink:title="A Blockwise Layer with 36 Tasks.&#10;Array Shape: (10980, 10980)&#10;Data Type: float32&#10;Chunk Size: (2048, 2048)&#10;Chunk Type: numpy.ndarray&#10;">
<polygon fill="none" stroke="black" points="847.25,-553.25 757,-553.25 757,-517.25 847.25,-517.25 847.25,-553.25"/>
<text xml:space="preserve" text-anchor="middle" x="802.12" y="-526.75" font-family="Helvetica,sans-Serif" font-size="20.00">add&#45;#24</text>
</a>
</g>
</g>
<!-- &#45;6311513585071791636&#45;&gt;1471446770691571879 -->
<g id="edge40" class="edge">
<title>&#45;6311513585071791636&#45;&gt;1471446770691571879</title>
<path fill="none" stroke="black" d="M802.12,-481.55C802.12,-488.84 802.12,-497.52 802.12,-505.71"/>
<polygon fill="black" stroke="black" points="798.63,-505.63 802.13,-515.63 805.63,-505.63 798.63,-505.63"/>
</g>
</g>
</svg>
