<svg xmlns="http://www.w3.org/2000/svg" xmlns:xlink="http://www.w3.org/1999/xlink" width="100.0" height="100.0" viewBox="77.4471445679029 12.82105454067286 0.34986484564061016 0.3355695644478729" preserveAspectRatio="xMinYMin meet"><g transform="matrix(1,0,0,-1,0,25.977678645793592)"><path fill-rule="evenodd" fill="#66cc99" stroke="#555555" stroke-width="0.0069972969128122035" opacity="0.6" d="M 77.54732748488789,12.86664025008461 L 77.54826925246327,12.866910946274809 L 77.54827874144523,12.866914741961669 L 77.54842255776786,12.866756402803693 L 77.54841671589966,12.866746801013011 L 77.54840121924623,12.86662131128187 L 77.54843297883697,12.866244095050874 L 77.54840973635513,12.866055862730615 L 77.54835057264744,12.865833085212419 L 77.54827739535027,12.865631380132367 L 77.54818266784231,12.865408948309955 L 77.54805878063837,12.865116997078518 L 77.5480506824934,12.865019358783524 L 77.54807117560856,12.864935403098695 L 77.54811336234057,12.864886133302205 L 77.54848804094013,12.864652155079753 L 77.5485798074978,12.864581464628902 L 77.5486205841962,12.864392614443313 L 77.54861945628684,12.864280947860962 L 77.54859712819164,12.864183445660013 L 77.54852515213818,12.864100386739322 L 77.5484463396691,12.864045315382961 L 77.54834647272358,12.86401836750589 L 77.54826723977226,12.863921420790144 L 77.5482158250506,12.86376138337474 L 77.54818610392856,12.863636034150995 L 77.54811433726397,12.863573913877028 L 77.54801432957102,12.863533006633324 L 77.54776458880987,12.863458657921168 L 77.54766429935238,12.8633898344341 L 77.54742752032021,12.863189718843033 L 77.54726243515745,12.86304474630055 L 77.54696213133006,12.862894109466037 L 77.54681232816301,12.86285368548757 L 77.54667633218166,12.862771247848428 L 77.54652568633126,12.862647072998529 L 77.54644610474524,12.86251522976146 L 77.54634496858925,12.86236265728675 L 77.5463151758764,12.862230328047783 L 77.54630637453239,12.862062898072871 L 77.54631228875186,12.86194418258872 L 77.54635708251769,12.861448179103599 L 77.54632757403049,12.861343768252258 L 77.54624792028456,12.861204942947436 L 77.54616833707226,12.861073099523427 L 77.54609621962324,12.860976082715707 L 77.54601692053883,12.860872155323843 L 77.54594494399844,12.860789095361747 L 77.54588669965939,12.860657044583773 L 77.54578542394358,12.860490510133031 L 77.54569105322454,12.860302972310517 L 77.54533708731063,12.859768958248685 L 77.54529286206991,12.85961583255699 L 77.54522701220755,12.85943499556061 L 77.5452008446311,12.859188653951971 L 77.54527166790737,12.858925032627495 L 77.54534773116859,12.858707918897496 L 77.54556542311632,12.85842661227371 L 77.54595157849054,12.857920314417584 L 77.54609143961953,12.857756628790128 L 77.54617673227291,12.857673831919325 L 77.54623237132844,12.857547655633732 L 77.54624525867177,12.857414914148741 L 77.54620779280162,12.857226819195619 L 77.54615568003518,12.856996991593919 L 77.54613990452002,12.856843587497535 L 77.54613814495623,12.856669108746635 L 77.54614356932424,12.85650154054507 L 77.54620561556865,12.856305501451148 L 77.5462749864139,12.85613033213213 L 77.54640077017241,12.85590575766377 L 77.54656331306161,12.855799479702215 L 77.5466972634129,12.855679521022518 L 77.54672494306709,12.855602473650297 L 77.54673839339593,12.855525566757647 L 77.5467371967262,12.855406920325825 L 77.54668649195527,12.85531667346519 L 77.54652070932404,12.855101907844404 L 77.54627647237466,12.854866965119026 L 77.54610372002632,12.854666225053812 L 77.54605984768138,12.854547995115924 L 77.54597245020328,12.85434642637372 L 77.54594864947381,12.854102363150426 L 77.54595414225409,12.853941774548046 L 77.54597957049607,12.853641393433604 L 77.54599837548315,12.853389936378413 L 77.54598901056033,12.85316667160771 L 77.5459661247946,12.853013338724821 L 77.5459226023416,12.85293000216109 L 77.54585774202177,12.85284687266396 L 77.54573583606023,12.852750336133145 L 77.54559231095182,12.852626092737001 L 77.54550561821223,12.85249431748802 L 77.54538899720079,12.852216253184208 L 77.5453380827551,12.852105071599668 L 77.54530843348131,12.85198670106675 L 77.54530716748695,12.85186107485087 L 77.54530569052214,12.851714512087002 L 77.5453046355618,12.851609824727806 L 77.54524702991442,12.851540587511282 L 77.545161111378,12.851485580924516 L 77.54511808180528,12.85145109915325 L 77.54504610880511,12.851368038331936 L 77.54497399522901,12.851271020550529 L 77.54491596782239,12.85115990549512 L 77.54491491307054,12.851055218099669 L 77.5449637175304,12.850957027378096 L 77.54502682134995,12.850865675938701 L 77.5452103482923,12.850724298821468 L 77.54538014529123,12.850631912299932 L 77.54544352785669,12.850568479303131 L 77.54555606854362,12.850441751284212 L 77.54564776138879,12.850364082987642 L 77.54572445615611,12.850209781504569 L 77.54572967048271,12.850021274356926 L 77.54574988516407,12.849909400354901 L 77.54562678529676,12.849694219207457 L 77.54544671346417,12.84947261265262 L 77.54538171373957,12.849375523581013 L 77.54533100870096,12.84928527843851 L 77.54520916702647,12.849000247033095 L 77.54545494678698,12.848723477857725 L 77.54567088763186,12.84856894744282 L 77.54601202031101,12.84850466318388 L 77.54654048377951,12.848530021535709 L 77.54688254026748,12.848557190378548 L 77.54741223546189,12.848704484262115 L 77.5495913040061,12.84911014085522 L 77.55077281189308,12.849190118823591 L 77.55176668113174,12.84914996954157 L 77.55238711796895,12.849052472456039 L 77.55316227493113,12.848892496540927 L 77.55347079915116,12.848676087607608 L 77.55377901227442,12.848429190775896 L 77.55414874206181,12.848120722903575 L 77.55623575662304,12.845569982157176 L 77.55675835090243,12.845016126024879 L 77.55697181283149,12.844617717525322 L 77.557000105625,12.844343058970875 L 77.55699578774178,12.843916283625035 L 77.5569785177653,12.842209182088993 L 77.55703879951905,12.842025672203082 L 77.55719228382374,12.841841256831666 L 77.55747065316042,12.841716596833752 L 77.55787452440353,12.841712662329748 L 77.55840266152464,12.841707516293523 L 77.55936573506186,12.841698129611627 L 77.55983143109394,12.841663103487395 L 77.56007903893398,12.841569229124543 L 77.56041861368102,12.841352507159678 L 77.56143640523962,12.840610895323096 L 77.5627953056448,12.839804977482027 L 77.56316717707055,12.8397098878563 L 77.56347815340341,12.83973733790732 L 77.56388294464301,12.839824845522871 L 77.56519114170493,12.840147423938582 L 77.56587646130248,12.840323649416137 L 77.56634246110865,12.840319095121988 L 77.56699485865057,12.840312717742748 L 77.56764725584097,12.84030633874668 L 77.5700381362783,12.840161000001755 L 77.57461310225328,12.839118856553016 L 77.57605165601245,12.838791147473067 L 77.5791828006434,12.83812019605319 L 77.58060934634831,12.83786229075146 L 77.58135212646272,12.837580614618181 L 77.58224899038584,12.837175473010388 L 77.58268048653434,12.836835878761088 L 77.58294392269015,12.836647297144697 L 77.58311229286282,12.836526768679736 L 77.58334054991357,12.836350874027092 L 77.58351303108911,12.83621796367777 L 77.58382119507824,12.8359710397557 L 77.58493811312235,12.834964583258126 L 77.5850526032652,12.834861414582159 L 77.58566414562794,12.834296237244946 L 77.58604764284883,12.834148123209355 L 77.58681094198012,12.834012497918808 L 77.5874272036887,12.834088783507001 L 77.5882336063858,12.834520076474986 L 77.58871355727338,12.834945429864677 L 77.58902398276008,12.835207740997756 L 77.5892278915974,12.835328000564562 L 77.58991227225317,12.83547829362647 L 77.59039347353277,12.835583478875263 L 77.5905108793468,12.835587554854264 L 77.59069229458377,12.835590999428476 L 77.59076158608809,12.835585082053722 L 77.59092107341478,12.83553116285862 L 77.59153618911326,12.835169133464367 L 77.59182192901758,12.834941219254992 L 77.59173649403758,12.837092837732833 L 77.5921532809164,12.839266216490769 L 77.59236837659422,12.841006086310726 L 77.59267713324809,12.842261143389244 L 77.59288479336719,12.843275254687255 L 77.59320448043889,12.845594752522286 L 77.59341910060066,12.847286234580707 L 77.59357597126838,12.848155679774095 L 77.5941228560928,12.848585771604734 L 77.59471805926984,12.848918606961789 L 77.595215139923,12.849300799756563 L 77.59595678590378,12.84948701758016 L 77.60090761071068,12.848982523116007 L 77.60215405328262,12.84915545963264 L 77.60432504343036,12.84880880931256 L 77.60491629744644,12.848737594803145 L 77.60503861015356,12.848699738983079 L 77.6051559122501,12.84868228542714 L 77.60719453397927,12.848891713954016 L 77.60926455034956,12.848774361862676 L 77.61083546402644,12.848081303741798 L 77.61126386276118,12.84729980300427 L 77.61146159926325,12.846952470002902 L 77.61173788697279,12.846964774433502 L 77.61181440244502,12.84725440804101 L 77.6128701276761,12.849633122202212 L 77.61330021529295,12.851164350134653 L 77.61366785591613,12.852590819085336 L 77.61364480517007,12.85332869745999 L 77.61365586650885,12.85439742095513 L 77.61381526651628,12.854990075054442 L 77.61409376023958,12.855204163911207 L 77.61487146961746,12.855603027260779 L 77.61595361513757,12.856053069721652 L 77.6166463606956,12.856553074530966 L 77.61712594720778,12.857207007701774 L 77.61732353704322,12.857611653104646 L 77.61735790704604,12.858261896955117 L 77.61761103030818,12.858693093223252 L 77.61769615528868,12.858909104882041 L 77.61802878291901,12.859014215792826 L 77.61902413587644,12.859085599439124 L 77.62269744197248,12.858967559080153 L 77.62515466783422,12.85880743004534 L 77.62758172151571,12.85840361313841 L 77.62805049833236,12.858317594231773 L 77.62835437512096,12.858314548459239 L 77.62871490871561,12.858446473137398 L 77.62952789255269,12.859576837427326 L 77.63070368217271,12.861055955466602 L 77.63167847794963,12.861805180437853 L 77.63270344038408,12.862065965696754 L 77.63361269735098,12.862117097923845 L 77.6344452444938,12.862184002903888 L 77.63486415189946,12.86261351241506 L 77.63503414795612,12.863018413364998 L 77.63550802586914,12.863420261152042 L 77.63595229755515,12.863632652300069 L 77.63755484878885,12.86364363888929 L 77.63838559143467,12.863825028685199 L 77.63897167847135,12.864388382313406 L 77.63942474169546,12.865441007104632 L 77.63953978181327,12.86587356667796 L 77.64009512821181,12.866139045598498 L 77.64037210594469,12.86604517286671 L 77.64135258237977,12.865736092530954 L 77.64164607441079,12.865660773707846 L 77.64180826955064,12.86531339054392 L 77.64197334317525,12.86407848054538 L 77.64197868175222,12.861322075627168 L 77.64232882854193,12.857821706479513 L 77.6427541872843,12.853588684929331 L 77.64293564372696,12.852448349268364 L 77.64314869235939,12.85168720016855 L 77.64328369256584,12.851387660004553 L 77.6434784770731,12.85152123243001 L 77.64375953871672,12.85197922485525 L 77.64414684154809,12.852029536317612 L 77.64439886181984,12.852352283159535 L 77.64457481171665,12.852888252731818 L 77.64516450380019,12.853817179490488 L 77.6459628405982,12.853962946599289 L 77.64634957823527,12.85395904502135 L 77.64656886567116,12.85379418803685 L 77.646813504342,12.853412218170712 L 77.6468659118832,12.8531406176001 L 77.64697669033912,12.853166607165372 L 77.64717318492085,12.853462803350157 L 77.64742236871906,12.853514503269 L 77.6476422232956,12.853403854636817 L 77.64772339079067,12.853240393324485 L 77.64796250556378,12.853141985572424 L 77.64805030386026,12.852810671802262 L 77.6484139901579,12.853233421579999 L 77.64869506220602,12.853691404228949 L 77.64900319097133,12.854094900707029 L 77.64944773577888,12.854334374557151 L 77.64972312265257,12.854250270611505 L 77.65018765846304,12.853675839865419 L 77.6503758583216,12.853267820870078 L 77.65065124359558,12.853183716229873 L 77.65098273038532,12.853180366336852 L 77.65128972319444,12.853475441781804 L 77.65132360800696,12.854071455619149 L 77.65119309799995,12.854449779538585 L 77.65111058249997,12.854832609169728 L 77.65105960496807,12.855239729614444 L 77.65117294584154,12.85550965478555 L 77.65150614338589,12.855668930231188 L 77.65165662075874,12.855929429952432 L 77.65198197048966,12.856065187375043 L 77.65271924509439,12.856294406754389 L 77.6541401227301,12.856563926970502 L 77.65530318784008,12.856823223224847 L 77.65696548781034,12.85726720416549 L 77.65770970662975,12.857461885274686 L 77.65793124094945,12.857607333673121 L 77.65839746144005,12.857897992734115 L 77.6587109478577,12.858176290866476 L 77.66002470876963,12.859187889819689 L 77.66111740946276,12.859894986525514 L 77.66172036864782,12.860173637244026 L 77.66300538803866,12.86151593008611 L 77.66394051456103,12.86247314321353 L 77.66448809063353,12.863262807866333 L 77.66549804113016,12.864716309196032 L 77.66617191894667,12.865739511685398 L 77.66633999751511,12.866118645629067 L 77.66671734422833,12.866137634582273 L 77.66720408803516,12.866319555261567 L 77.66801888831506,12.86641319256275 L 77.669444324167,12.866942304257028 L 77.67130691235293,12.867874675968247 L 77.67264489368748,12.868319718978436 L 77.67290711392486,12.868554881952686 L 77.67285510646859,12.868856800290187 L 77.67289477009268,12.869171266340162 L 77.67313220344023,12.869550523147335 L 77.67333571872271,12.869875602098306 L 77.67374669435854,12.870392122758162 L 77.67402458407051,12.870752466296297 L 77.67488273134276,12.871800903856744 L 77.67520406898484,12.87227625728824 L 77.67541597036133,12.872542337365342 L 77.67543272138549,12.872605281348479 L 77.67544416856643,12.87267354082685 L 77.6754504769406,12.872762891150332 L 77.67540816110727,12.87282180848003 L 77.67528575418292,12.872901326420692 L 77.6751768696122,12.87324957957838 L 77.67503850039674,12.873850598862656 L 77.67493625845685,12.874319755368754 L 77.6747667857311,12.875021027501019 L 77.67466678047661,12.875195619438925 L 77.67461920540218,12.875259222735151 L 77.67459296235992,12.87531208782765 L 77.67429276785857,12.876325016173489 L 77.67407292772788,12.876826932408427 L 77.67369422721819,12.877514564091523 L 77.67357484082235,12.877883962883603 L 77.67198775628982,12.88082771622481 L 77.67435643455958,12.880442122998751 L 77.67443292375806,12.881088900922707 L 77.67443003673633,12.881094291188052 L 77.674419081007,12.881127687070768 L 77.67441496059301,12.881165451135908 L 77.67441536094304,12.881203169014993 L 77.67441802167673,12.881240863800791 L 77.67442513725113,12.881271857207539 L 77.67443010780673,12.881313964096204 L 77.67444167348697,12.881338253858353 L 77.67446592989623,12.881368015249441 L 77.67456588615111,12.882213241655625 L 77.67452865726047,12.882218543411613 L 77.67455268509542,12.882493447833586 L 77.67461553401552,12.88301647506811 L 77.67462464357929,12.883306321408375 L 77.6746433015744,12.88335938690674 L 77.67465564520504,12.883385886535674 L 77.67468937884499,12.883438797969376 L 77.67472823392261,12.88368987828894 L 77.67479991046886,12.88419210514587 L 77.67452611158309,12.884251117331562 L 77.67408373375784,12.884338477537183 L 77.6728134486799,12.884558553444911 L 77.67248789384217,12.884621570481567 L 77.67185975597425,12.88469053723985 L 77.67315526486034,12.891689643077298 L 77.67334098358546,12.89292165442437 L 77.67363879824252,12.892868501667245 L 77.67396573394021,12.892827375098271 L 77.67638874264391,12.89278796046565 L 77.68635465197686,12.905831530445832 L 77.68876292945595,12.90814496536076 L 77.70159749471293,12.904739111344574 L 77.70778383461078,12.903739815724766 L 77.70923019202688,12.908733766815587 L 77.71536808289903,12.910083400376232 L 77.7165197354299,12.909299182109034 L 77.7194791718673,12.910934808228133 L 77.72703147197619,12.908173561359394 L 77.72827173588676,12.915557827091735 L 77.73461522025264,12.915938551611918 L 77.74485342129121,12.91631884881953 L 77.74499014025186,12.917455430354206 L 77.7452489282454,12.91838750855701 L 77.74621733876549,12.919799843611136 L 77.74671848750802,12.9201603637912 L 77.74730338614755,12.920601284689054 L 77.74788828439961,12.921042206185351 L 77.74855515481293,12.921400974780246 L 77.74917748172925,12.92147570849505 L 77.74967463515561,12.92147047147946 L 77.75066893428016,12.92145999469032 L 77.75116742023967,12.921576669039895 L 77.75154473509605,12.921979125896602 L 77.7517973172682,12.922342249797243 L 77.75235861539967,12.92440913921641 L 77.75248958764024,12.92501740753055 L 77.75255126269334,12.925360530582683 L 77.75469253342696,12.925869037449536 L 77.75707604179323,12.926522490335456 L 77.76018691803057,12.927669823150545 L 77.76211897164406,12.928298494608704 L 77.76362671036993,12.928636592409529 L 77.76468134703971,12.928802449180553 L 77.76567924485943,12.932007962650243 L 77.76560234368544,12.93321850041368 L 77.76594100036861,12.933923039184467 L 77.76606781467676,12.934511801143666 L 77.76634339236651,12.934951458513225 L 77.7663178696204,12.935364807158434 L 77.76581598479588,12.936225785716326 L 77.76549391209583,12.937025848431071 L 77.76530924374056,12.942102737459003 L 77.76542844445666,12.944727454960551 L 77.76547686098526,12.94525602805837 L 77.76556926569133,12.946584799137865 L 77.76541060445625,12.948563345319778 L 77.7644631113054,12.955389152978448 L 77.76429659138402,12.957945449453733 L 77.76453919793695,12.958135865424245 L 77.7651670028609,12.958698195547461 L 77.76546018922663,12.958979581078006 L 77.76550745868012,12.95950743462514 L 77.76539168157358,12.960280878409737 L 77.7653542869522,12.960647060307977 L 77.76537042274462,12.96065632387145 L 77.76556280891465,12.960766771310277 L 77.76730895337083,12.960292073124005 L 77.76905350521064,12.960323103277092 L 77.77027495401941,12.961053867928971 L 77.77048703538884,12.961944123825544 L 77.77030656321374,12.962688419944657 L 77.7704258104446,12.962826905938622 L 77.77094885922064,12.9636234061081 L 77.77128350723359,12.964191013642004 L 77.77142120628218,12.964317150263607 L 77.77153345415779,12.964382792576464 L 77.77185053649752,12.964482713851986 L 77.77209954195014,12.964589434898183 L 77.77256819209083,12.964949016848085 L 77.77315899330853,12.965708331920027 L 77.77333433563443,12.965876599502307 L 77.77388938300466,12.96620487810044 L 77.77443103192925,12.966442153832975 L 77.77562173423036,12.967103918670372 L 77.77616446472743,12.967438399895354 L 77.77637670846332,12.967581964480113 L 77.77692967240648,12.967721894200661 L 77.77739725778137,12.967984257318811 L 77.77752162811527,12.968025462820519 L 77.77767650089824,12.968023809123133 L 77.77784335827833,12.967985568815678 L 77.77822003193145,12.96787217289133 L 77.77881157219282,12.96758027057157 L 77.77898287038582,12.967384000712864 L 77.77898159898173,12.967369519690855 L 77.77898188496809,12.96736936863727 L 77.77900868230098,12.967355337009451 L 77.77906576813159,12.966953762234132 L 77.77907404734552,12.966862529837888 L 77.77908217712374,12.966757629989214 L 77.7791037366425,12.966607010076883 L 77.77913969223077,12.966497255089477 L 77.77930250870381,12.966513744995165 L 77.77952961249282,12.966461188853996 L 77.77974707047076,12.966376834996703 L 77.78018779714705,12.96631288226369 L 77.7805876155661,12.966331394129414 L 77.7807940153293,12.966420472945362 L 77.78103979319654,12.966291774333298 L 77.78107584854472,12.96629609710528 L 77.78119691898371,12.966198294108606 L 77.78158072450879,12.96603013251138 L 77.78181303102022,12.966027648683937 L 77.78230724275612,12.966177308673867 L 77.78294649681646,12.966416557491868 L 77.7831473952395,12.966514667801224 L 77.78318659091404,12.966553722335345 L 77.78355889456566,12.966604426675119 L 77.78358495551244,12.966592911546062 L 77.78369375619184,12.966593190365899 L 77.78380710991654,12.966606395679081 L 77.7838970083559,12.966625621543134 L 77.78395734468867,12.966630743174862 L 77.78397073596291,12.96664501810954 L 77.78398113919916,12.966655000704135 L 77.78398575880574,12.966673696133173 L 77.78397169841016,12.966731524172896 L 77.78394889838897,12.966796653700865 L 77.78394222993516,12.966813788762952 L 77.78390887817372,12.966899459549841 L 77.78392015544456,12.966953032063437 L 77.78391930293799,12.966958424611839 L 77.78394324529964,12.966988762347333 L 77.7839594628159,12.967036653442017 L 77.78394376714778,12.967211775794546 L 77.78391632260254,12.967563897614875 L 77.78389163051229,12.967635295688911 L 77.78380511472022,12.96778810444552 L 77.78380360468589,12.967828493985332 L 77.78394279381352,12.967828926073826 L 77.78393791920311,12.967919337922657 L 77.78387725050804,12.968104554513001 L 77.78385942455185,12.968264317135478 L 77.7839192312815,12.968354036752437 L 77.78398632335909,12.968393692072926 L 77.78402966055286,12.968412456414308 L 77.78405145629756,12.968433370652884 L 77.7840479229684,12.96846801454687 L 77.78397244604028,12.968732212429593 L 77.78394859290492,12.968878583308582 L 77.78393022990247,12.968990287037588 L 77.78387060401458,12.969073008557395 L 77.78387572334898,12.969101854988768 L 77.78388556215155,12.96915730441145 L 77.78388339920073,12.969158932413807 L 77.78384562651813,12.96919971006197 L 77.7837093846442,12.969508296316613 L 77.78364782416755,12.969657473421691 L 77.78358340149704,12.969813889120086 L 77.78357367899893,12.969997117529035 L 77.78358186432446,12.970072009395118 L 77.78357499450699,12.97011534226064 L 77.78356205218631,12.97014143360467 L 77.78354620435361,12.970170442004616 L 77.78351243920152,12.97017512768373 L 77.78348878870355,12.970163846203004 L 77.7834635891802,12.970145371021001 L 77.78344570636536,12.97012393619757 L 77.783395676256,12.970120142669085 L 77.78334599675246,12.97014807244752 L 77.78332859751022,12.97016988716443 L 77.78330835452911,12.970200383257968 L 77.78325817199993,12.97024922543716 L 77.78314570563349,12.970360014535672 L 77.78306804844102,12.970428136064587 L 77.78305509924427,12.97049748682814 L 77.78298615797746,12.970644337901454 L 77.78298055839306,12.97066939098656 L 77.78298464791541,12.970684729771227 L 77.7830023543052,12.97069030528789 L 77.78303373710503,12.970691893444542 L 77.78314582712864,12.97072337609524 L 77.783240533968,12.97077811853285 L 77.78325252917517,12.970799137690342 L 77.78325272166278,12.970816437520854 L 77.78325287139272,12.970829894486032 L 77.7832470128023,12.970831878844306 L 77.78323148185255,12.970845505931319 L 77.78319850106598,12.970876617024157 L 77.78317056240161,12.970906959603521 L 77.78316580880313,12.97090420313673 L 77.78315277125377,12.970906907184649 L 77.78312924900925,12.970907158903945 L 77.78310569823452,12.970904846398412 L 77.78306905290155,12.970900114113348 L 77.78301149757043,12.970895603265381 L 77.78292264020182,12.970896554097111 L 77.78282588423671,12.970892460357334 L 77.78241789579153,12.970871191825342 L 77.78219296307843,12.970858220245665 L 77.78187039308719,12.970834848431444 L 77.78176133587402,12.970826947726133 L 77.7817142366965,12.970822324743498 L 77.78162784903631,12.970810432994448 L 77.78151515345125,12.970783440017204 L 77.7813709586407,12.970743965821086 L 77.78126067825463,12.970699004421132 L 77.78112667615443,12.970636351846666 L 77.78101849754383,12.970545224771561 L 77.78092568630633,12.97042573734001 L 77.78092585050216,12.970415267019836 L 77.7809255257895,12.970415328303622 L 77.78079553824817,12.970200268359722 L 77.78068978228663,12.97009202600583 L 77.78062304311328,12.97004488982344 L 77.78053558391889,12.970015061996467 L 77.7804064638838,12.969999353155142 L 77.78030218945688,12.97002439269454 L 77.78009023187322,12.970081343769326 L 77.77973889012328,12.970139786726582 L 77.77948447145421,12.970139085586055 L 77.77934664505769,12.97016320452754 L 77.77926568380202,12.970169196437693 L 77.77917159714391,12.970170201815627 L 77.77913498031535,12.970168028545435 L 77.77900393513856,12.970136103678438 L 77.77890433684517,12.970111534046287 L 77.77886510774562,12.970109388646403 L 77.77882854553015,12.970112343820276 L 77.77878422953161,12.970123070815202 L 77.77875829430536,12.97014129272391 L 77.778716963029,12.970185310610963 L 77.77847482372941,12.97050576362875 L 77.77843926020002,12.970598427582061 L 77.77842170734017,12.97066526300518 L 77.77840954984796,12.970747421076345 L 77.77842901014873,12.970852315270786 L 77.77856341529063,12.971186688018895 L 77.77878583427523,12.971679052089335 L 77.77896305044725,12.97210268642813 L 77.77899978916481,12.972350945124965 L 77.77900314189479,12.972417557166237 L 77.77896527940096,12.97253844178432 L 77.77889588192984,12.972644285431624 L 77.7788311417969,12.972698809391332 L 77.77877938477441,12.972745503307337 L 77.77869887590144,12.972792504450855 L 77.77865984335564,12.972808301818105 L 77.7785240846892,12.972822570494502 L 77.77840908911608,12.972823799198668 L 77.77830190669849,12.972822382150403 L 77.77820276518406,12.972838821662132 L 77.77808566736773,12.972886213548772 L 77.7780259546338,12.972922738816045 L 77.77800280218379,12.972956308960008 L 77.77794124580815,12.973062068681285 L 77.77791033947501,12.973103412957059 L 77.77790545415137,12.973134228038795 L 77.77790561312759,12.973134742023024 L 77.7779051680143,12.973134790715195 L 77.77789125650011,12.97325817127385 L 77.77788976463961,12.973300482430805 L 77.77787065633945,12.973344905764543 L 77.77782636277132,12.973416513078126 L 77.77773116959726,12.973494433760132 L 77.77761590250675,12.973530271310155 L 77.77758264542031,12.973536393883212 L 77.77753560257078,12.973536896387703 L 77.77746312058318,12.973541516264348 L 77.77742604704804,12.973557292557222 L 77.77734770398932,12.973563898989514 L 77.77724379600389,12.973563084832978 L 77.77716760662975,12.97358697017771 L 77.77712674030305,12.973614321586984 L 77.77707839992027,12.973674437396339 L 77.77703762132225,12.97370947916517 L 77.7769597050738,12.973754530528133 L 77.77690167044747,12.973824362826146 L 77.77676126706758,12.974068103733746 L 77.77671286013113,12.974122452893045 L 77.77669749930152,12.974151455867366 L 77.77669767005317,12.974166834347228 L 77.77670751605123,12.97417057716792 L 77.77671550476563,12.97418394817581 L 77.77671563282408,12.974195481457448 L 77.77669232358775,12.974214956335398 L 77.77667672797216,12.974222814188924 L 77.77666307259479,12.97422872733878 L 77.77661666987686,12.974286898428328 L 77.7765450816871,12.97437225803975 L 77.77647694471023,12.974415280899553 L 77.77619910112523,12.974467207503094 L 77.77619915436296,12.974472003019562 L 77.7761874611566,12.974474125854764 L 77.77609935942715,12.974484679509567 L 77.7760370834682,12.974525720336711 L 77.77602934847373,12.974535415904468 L 77.77599289586992,12.974606939324671 L 77.77596411187744,12.974663000557536 L 77.77595311990777,12.974732330472227 L 77.77597159244726,12.974807113132972 L 77.77603830560147,12.974989045213713 L 77.77609016598275,12.975069241006539 L 77.77615683661169,12.975247325510324 L 77.77620867573889,12.975325597503812 L 77.77632756564117,12.975439683736647 L 77.7764048655725,12.975515759801159 L 77.77650036325402,12.975641630373566 L 77.77653017174853,12.975677839968425 L 77.77653656415363,12.975723912611986 L 77.77652523083694,12.975762485562859 L 77.77648457992785,12.975809060606892 L 77.7764576081887,12.975851646220853 L 77.77644037104206,12.975888360549574 L 77.77643489411207,12.97592494697442 L 77.77643521427056,12.975953780181541 L 77.77647925698246,12.976035980988192 L 77.77656056346731,12.976119707791081 L 77.77662390702521,12.976174785160843 L 77.77672549871173,12.976319814131765 L 77.7767392846299,12.976325434211002 L 77.77676898653701,12.976352034228738 L 77.77678677637995,12.97636530284549 L 77.77681451665504,12.976391921495885 L 77.7768206980464,12.976418772730435 L 77.77682506722351,12.976459097325753 L 77.77684386035276,12.976521088407795 L 77.7768690922864,12.976542447512754 L 77.77689427853502,12.976559480453902 L 77.77701518067764,12.976589911583561 L 77.77707109237554,12.976593640971737 L 77.77710193459917,12.97659042784277 L 77.77713843275178,12.976566966351347 L 77.77717182834287,12.976529119695217 L 77.77721093025767,12.976475350786647 L 77.77732800933532,12.976293858528752 L 77.77736148494589,12.976263221312736 L 77.77745207108457,12.976211786025218 L 77.77756496744122,12.976183183947475 L 77.77767694271914,12.976194782530966 L 77.7776848381958,12.976202720158406 L 77.77774304041597,12.976195079927903 L 77.7778979328084,12.976241006455364 L 77.77803679791822,12.976300084078199 L 77.77809619657629,12.97635280050716 L 77.77816348891805,12.97645445938599 L 77.77829180913011,12.976623235481027 L 77.77842996144406,12.976882747405412 L 77.77848400890086,12.97698310240568 L 77.77848382360904,12.976986374227543 L 77.77849901505554,12.977076664368402 L 77.77850478906504,12.977110972988818 L 77.77852061975102,12.977124260085342 L 77.77853828155297,12.977125995290306 L 77.77850683708135,12.977422989699798 L 77.77835458500444,12.977968009641595 L 77.77817943909129,12.97859794793839 L 77.77802282922481,12.978980713314774 L 77.77755226075566,12.979373880039347 L 77.77732085672993,12.979919745799137 L 77.77719440746534,12.9804127390823 L 77.77693431920767,12.980751902868834 L 77.7764112690249,12.981171505865712 L 77.77615089159626,12.981484797957743 L 77.7759735274729,12.982066343470727 L 77.7758982372931,12.98234784119503 L 77.77587774308174,12.982444187605077 L 77.7760623166934,12.983012420218609 L 77.77620227997988,12.983735450156402 L 77.77636661345068,12.984277085253986 L 77.77657611222004,12.98486500037192 L 77.77637811276153,12.985311995580702 L 77.77575498210675,12.98622431112382 L 77.77567899481839,12.986509756916815 L 77.77568503142123,12.98705308588422 L 77.77572224949309,12.987754738561557 L 77.77594784320925,12.988112843368649 L 77.77594088030033,12.988706406324676 L 77.7759449057727,12.989068627038808 L 77.77579120598205,12.989484282095104 L 77.77558473734504,12.989900503393683 L 77.77553571127937,12.990237412181953 L 77.77555717547284,12.990721258782857 L 77.77551910299837,12.991117370249558 L 77.77549875703879,12.991660981091188 L 77.77537946299037,12.992022704584517 L 77.77556015282022,12.992436598800886 L 77.77572219154476,12.992771253859695 L 77.77591119295427,12.993157371444537 L 77.7759132063674,12.99333848174577 L 77.77583578067559,12.993494564663337 L 77.77549911717587,12.994067431189562 L 77.77523930586607,12.994432469847728 L 77.7751920005695,12.994924617920272 L 77.77522269935872,12.995312427913547 L 77.77506755863017,12.995598720135916 L 77.77483816399577,12.995802337026962 L 77.7742866471917,12.996091140213194 L 77.7742878379602,12.996198290175055 L 77.7743198021905,12.996392786674164 L 77.77436202515263,12.996616400967367 L 77.77436429857364,12.99682095723064 L 77.7743765035543,12.997025407346873 L 77.77437834403618,12.997191002927726 L 77.77434110087142,12.997415464175742 L 77.77433236024801,12.997522720267858 L 77.77441312592588,12.997638759887543 L 77.77462302541592,12.997753421492773 L 77.77474341632325,12.997859297238772 L 77.77482450951938,12.99800455829038 L 77.77488627411259,12.998198738314455 L 77.77488865654865,12.998413035780972 L 77.77483122351593,12.998608487755014 L 77.77483284793082,12.998754600612589 L 77.77480683641211,12.999095846901582 L 77.77473957760175,12.999301146414044 L 77.7746526673619,12.999526140968772 L 77.77462438154609,12.999662831117965 L 77.77457720474219,12.999887400905349 L 77.77457019707477,13.000150508867648 L 77.7746024875859,13.00037422909418 L 77.77463434498945,13.000558986334504 L 77.77469535469561,13.000684979325086 L 77.77478605823534,13.000800912326575 L 77.77478714134779,13.000898320885854 L 77.77473801510853,13.00094755621521 L 77.77464980253744,13.001055659678256 L 77.77455079416801,13.001085945660074 L 77.77436216515135,13.001097704765437 L 77.7741935100855,13.001118990384779 L 77.7740047750425,13.00112100788862 L 77.77380664494125,13.001171835780019 L 77.77369780820159,13.001211966686032 L 77.77361942555808,13.001310224662733 L 77.77357192298476,13.00150557050343 L 77.77357343876156,13.001641942157253 L 77.77355476160359,13.00174930448979 L 77.77346622578709,13.001828186005945 L 77.77329768066619,13.001859212460793 L 77.7731188766436,13.001861123292262 L 77.77292009619934,13.0018535072846 L 77.77273146861602,13.001865262997335 L 77.77259467141259,13.002071305399255 L 77.77245733286671,13.002228645712918 L 77.772359295292,13.00234659612722 L 77.7723422410581,13.002600071607043 L 77.7724136174909,13.002764922147577 L 77.77254426935595,13.002899911822103 L 77.77274380847362,13.002975717288042 L 77.77298264643115,13.003012132646829 L 77.77320194331065,13.003077981768568 L 77.77340083301038,13.003095341001435 L 77.77370736670677,13.002965419113151 L 77.77400515955352,13.002942753033729 L 77.77413418530233,13.002931628841232 L 77.77437226733315,13.002899858243586 L 77.77447117047542,13.002859833151732 L 77.77463021511826,13.002867875014543 L 77.77479023706674,13.002963583979183 L 77.77490026589386,13.003030600038091 L 77.77508025989123,13.003135837669058 L 77.77524071554154,13.00327050922357 L 77.77534189167073,13.003435039814152 L 77.7754836713612,13.003677071143722 L 77.77550527346261,13.003832712641232 L 77.77554728335976,13.004036843541083 L 77.77553207727587,13.004455909248433 L 77.77552409146179,13.004631352180477 L 77.77552571703534,13.004777462572138 L 77.77552734262873,13.004923572961959 L 77.7755993722824,13.005146869891488 L 77.77566125109868,13.005350788129016 L 77.77572236898929,13.005486521828384 L 77.77577333831628,13.0056028791516 L 77.77577463902165,13.005719770206198 L 77.77572627098434,13.00583719038259 L 77.77564756065694,13.005906225176995 L 77.7755814382711,13.005947028675411 L 77.77551971805373,13.005987132944314 L 77.77542850520997,13.006006039750025 L 77.77524592458029,13.006029508316338 L 77.77513988793514,13.006030642652386 L 77.77504478077444,13.006028073378454 L 77.77489864345115,13.006040394220815 L 77.7748184421156,13.00606276738152 L 77.77472361411333,13.006085296964597 L 77.77461821551766,13.006143799187765 L 77.77455415127096,13.006206407945987 L 77.77448818767738,13.00625155003879 L 77.77438318458707,13.00631784795307 L 77.77433212625121,13.00634505689086 L 77.7742507936873,13.006366665008146 L 77.77420850296801,13.006367117270328 L 77.77408753784921,13.006356559387852 L 77.77405129067891,13.006356946996869 L 77.77401484115255,13.006339563041832 L 77.77398111810624,13.00629548702858 L 77.77394128797636,13.006245549424055 L 77.77391666204169,13.006204338410113 L 77.77388303782098,13.006169145870132 L 77.77382833298377,13.006140105614735 L 77.77371899159743,13.006087951219833 L 77.77363122256148,13.006074075873398 L 77.7735406305861,13.006078009030537 L 77.77345023852817,13.006099711437477 L 77.77340817601696,13.006120899452974 L 77.77337544109946,13.006165686054045 L 77.77328948574156,13.006314730962881 L 77.77327247952196,13.00641563752384 L 77.77327668575427,13.006522244203662 L 77.77328631913792,13.006845051501388 L 77.77327063033654,13.00706444478021 L 77.77328120718897,13.00720060623192 L 77.7733066918794,13.0073188345647 L 77.77331637948713,13.007375016786431 L 77.77336408253638,13.007503924781892 L 77.77337393810424,13.007665769403106 L 77.77337499212679,13.007760558298418 L 77.77337179670995,13.007835641726471 L 77.77335258154568,13.00791879818496 L 77.77329786317812,13.008069484069077 L 77.77326621177833,13.008121171125481 L 77.77321087613511,13.00821656292821 L 77.77314013311991,13.008375319572334 L 77.77312910225314,13.00847023768667 L 77.77312188165328,13.008545364159723 L 77.77306156503197,13.008917310318575 L 77.77305715514491,13.0092452072229 L 77.77309844274515,13.009335613926247 L 77.77315159572868,13.009406147470921 L 77.77327746835327,13.009495652019009 L 77.77335491826531,13.009577772539295 L 77.773355313577,13.009613318081456 L 77.77334822251608,13.009700294628653 L 77.77332856809588,13.00974395631509 L 77.7732855806963,13.009862914450544 L 77.77321391509233,13.00993873003451 L 77.77316623892206,13.009998490221744 L 77.7731429522245,13.010077740517248 L 77.77316786406656,13.010144623968406 L 77.77321282805917,13.010203391246858 L 77.77329802818493,13.010257780846194 L 77.7733588827324,13.010296629576011 L 77.7734356764343,13.01031950896547 L 77.77373456953268,13.01039136395046 L 77.77381981371468,13.010449700275341 L 77.7738688493964,13.010512375877305 L 77.77391368184061,13.010559297561343 L 77.77393470057513,13.010638071675643 L 77.77391211708112,13.010780512240707 L 77.7738524902015,13.010852251838068 L 77.77375691825216,13.01095202390231 L 77.77369746937205,13.011039560439887 L 77.7736271656014,13.011237812061333 L 77.77363662655992,13.011364108726474 L 77.77366578595812,13.01145069753694 L 77.77375186538751,13.01158407873053 L 77.7737790208079,13.011852387431706 L 77.77382167140937,13.012065229722927 L 77.77377522542815,13.012235578191046 L 77.77376441698763,13.012350242495891 L 77.77377790576388,13.012476498353184 L 77.77382690036227,13.012535224605783 L 77.77390417817493,13.012601547712928 L 77.77419021369995,13.012965836506899 L 77.77426044510712,13.013123085208484 L 77.77427301129771,13.013166402234468 L 77.77430129455962,13.01317399904397 L 77.77426158781947,13.013225772479833 L 77.77424631258054,13.013300985105348 L 77.7742188643812,13.013368430860128 L 77.77417118798056,13.013428188989863 L 77.77411107727961,13.013456484749724 L 77.77404282346411,13.013476963566328 L 77.77391380201986,13.01346649245659 L 77.77386520270565,13.013443314093614 L 77.77373153614649,13.01337759425389 L 77.77364274657718,13.013362742895069 L 77.77357834455024,13.013367381524557 L 77.77338119875034,13.01338924120491 L 77.77322477274838,13.013450164702613 L 77.77303686813006,13.013578574606873 L 77.77293398899378,13.013745574589759 L 77.77290277636791,13.013836758846606 L 77.77290922019333,13.01405393828348 L 77.77298528021645,13.014373075057987 L 77.77297477673406,13.014515388787622 L 77.77295267606377,13.014701273448281 L 77.77289839381628,13.014891456653674 L 77.7728813728195,13.015172087150091 L 77.77301670995175,13.015387887913759 L 77.77302608571479,13.015506288389027 L 77.77303184597216,13.015540518550809 L 77.77144735907417,13.016106480446247 L 77.7710090148047,13.015591023883147 L 77.77047540701669,13.014879798684706 L 77.7698761933498,13.014246299279044 L 77.76957084602743,13.013956275435964 L 77.76944862641685,13.0138331552594 L 77.76937763187901,13.013697636373644 L 77.76925021678986,13.013344564591566 L 77.76918690604448,13.013119021637731 L 77.76918591898941,13.013030158647306 L 77.76922147867832,13.012967566018386 L 77.76928621031618,13.012908507499208 L 77.7693345280634,13.01280934536421 L 77.76944862609054,13.01247336182779 L 77.76953327156497,13.012205832611153 L 77.76954722331749,13.01210199629384 L 77.76953937224553,13.011939142288389 L 77.76953125797405,13.011752590406918 L 77.7695345291603,13.01123115430628 L 77.76950204613566,13.01075453909437 L 77.76946605057294,13.010506072074254 L 77.76938270564705,13.010074434363998 L 77.76930655380703,13.009746409408589 L 77.76920984745357,13.009471929828665 L 77.76909225760944,13.009221371512213 L 77.76906165117698,13.008913596174523 L 77.76907116833112,13.00868241914406 L 77.7690745455809,13.008442420768112 L 77.76902377932328,13.00822373648737 L 77.76903976541317,13.008031002577292 L 77.76907161577653,13.007906236793357 L 77.76903434400839,13.007814796500895 L 77.76946088778726,13.007008352784403 L 77.76965941267329,13.005905112046989 L 77.76938249418933,13.004964334815403 L 77.76926036292285,13.003978055401348 L 77.76894387184971,13.003248161221546 L 77.76862009327772,13.002979632637452 L 77.7678712424399,13.003097615365812 L 77.7674172347716,13.003245379179049 L 77.76618858553171,13.003480970072351 L 77.76566865344715,13.003660086070747 L 77.7647111396627,13.003880403927633 L 77.76366669889076,13.00435142210065 L 77.76251433294397,13.00466137560642 L 77.76210724384774,13.004825637781137 L 77.76158248971007,13.005194208100999 L 77.7614797817051,13.005195301345957 L 77.76115264871227,13.005118795976886 L 77.76090694366579,13.005029572057655 L 77.76080098557175,13.00500996107374 L 77.7606801843014,13.005014208839023 L 77.76057747629201,13.005015301712193 L 77.76049295752186,13.005022125646642 L 77.76043576013205,13.00504051044517 L 77.76033961776267,13.005088935085958 L 77.7602167462756,13.00517911884473 L 77.76018088976355,13.00521504814725 L 77.76003096129057,13.005317368975376 L 77.75995284646727,13.005356712449444 L 77.75986622688175,13.005446510430495 L 77.75965659949057,13.005614641823025 L 77.75937799123726,13.005827946240297 L 77.75930328761767,13.005902805754467 L 77.75927682042096,13.00596826062593 L 77.75926844662241,13.006030563046373 L 77.75926023666894,13.006107677639585 L 77.7592696589733,13.006140162948093 L 77.7592794089776,13.006202272599948 L 77.75930446113533,13.006281995725494 L 77.7593547293184,13.006456249504815 L 77.75941812878466,13.006725164760132 L 77.7594371374325,13.006804952138356 L 77.75949748137964,13.007070937518384 L 77.75949521686947,13.0071391019012 L 77.75948674245606,13.00719251611986 L 77.75948752898081,13.00726360805363 L 77.75944841647308,13.007551389965727 L 77.75939278910515,13.007711958561742 L 77.75933023552533,13.007792611257837 L 77.75918595572165,13.007859324006676 L 77.75915581235955,13.007865569286086 L 77.75905920988565,13.007872521476193 L 77.75898950073363,13.007852524383612 L 77.7588986446771,13.007832754502907 L 77.7588503750192,13.007839192539043 L 77.75878739762412,13.007881337161002 L 77.7587122697,13.007917686354627 L 77.75861612351017,13.007966110660734 L 77.75858624457932,13.007996053952846 L 77.7585804981143,13.00802277596178 L 77.75853271985943,13.008073648173424 L 77.75845174473919,13.00812783573739 L 77.7583708702159,13.00819090917922 L 77.75834703016548,13.008220785922106 L 77.75834430674342,13.008247480408537 L 77.75833622521967,13.008336440640992 L 77.7583006301173,13.008396067924458 L 77.75811520215726,13.008566905998386 L 77.75789250809828,13.008646301277796 L 77.75761232052741,13.008717418371466 L 77.75741090411117,13.00880843405458 L 77.75720351172416,13.008905442408969 L 77.75716745542806,13.008923599644799 L 77.7570835596067,13.008986704908446 L 77.7570478658715,13.009037446164937 L 77.75697434190288,13.009218943409934 L 77.75690593989614,13.009317431850869 L 77.75684364709436,13.009421784622585 L 77.75677800843775,13.009496545071853 L 77.75661910979424,13.009607849283695 L 77.7564937402557,13.009745458007492 L 77.75618750816194,13.00992053904362 L 77.75594431957389,13.01005939964124 L 77.7556842559864,13.010165331130581 L 77.7554630056428,13.01024819202961 L 77.75535776295663,13.010293749725092 L 77.75527922021718,13.010294584170316 L 77.75518846140766,13.010283696742192 L 77.75512167415049,13.010254780649715 L 77.75506335988437,13.010172447976295 L 77.75497458690427,13.009794187383754 L 77.754919690426,13.009603867902552 L 77.7549160441292,13.009589111172673 L 77.75491456368873,13.00957037935151 L 77.75490213911554,13.00948427307277 L 77.7549028902444,13.009436773005245 L 77.75490459720227,13.009360515929956 L 77.75490687014944,13.009335493516488 L 77.7549078674086,13.009310486965619 L 77.75490638697474,13.009291755143602 L 77.75490502842491,13.009284270092511 L 77.7549022860972,13.009266802743642 L 77.75487244838897,13.009219625265878 L 77.75479994960743,13.009117911636176 L 77.75475589997934,13.009053386292397 L 77.75471715559326,13.009007554453172 L 77.7547144984721,13.00899758567646 L 77.75471947001643,13.008986284807364 L 77.75472956963485,13.008977426988917 L 77.75473713402965,13.008969849478923 L 77.75473694078731,13.008952355051681 L 77.75472776939154,13.008929954012096 L 77.75471853134515,13.008901305267242 L 77.75470688230799,13.00888518357802 L 77.7546877792891,13.0088866352215 L 77.75466499189481,13.008900625131531 L 77.7546471645857,13.008902063223589 L 77.75463951738898,13.008902144440086 L 77.75461898684777,13.008889865656187 L 77.75459322246972,13.008865141003598 L 77.75457263907592,13.008847863120732 L 77.75454420144652,13.008811921095177 L 77.75451729943384,13.008799709965576 L 77.75449175592983,13.008794981576955 L 77.75446120854882,13.008799054566769 L 77.75442963860178,13.008825634552313 L 77.75440941407444,13.00884084829533 L 77.7543980962794,13.008854716382501 L 77.75437533647198,13.008871205804734 L 77.7543575758281,13.008878893895504 L 77.75433725465939,13.008885358105717 L 77.75431305350041,13.008886863860202 L 77.75429773388198,13.008884529025147 L 77.75428242566977,13.008883440513396 L 77.7542646374161,13.008888629063314 L 77.75425072912384,13.008898773755485 L 77.75422194285619,13.008946573860358 L 77.75418685172886,13.009000689328653 L 77.75412438563625,13.009115086739726 L 77.75412076787028,13.009133872713466 L 77.75410849412248,13.009176497816945 L 77.7540774599647,13.009251815275865 L 77.75405478291,13.009275803287748 L 77.75401854019763,13.009341179049013 L 77.75395567609482,13.00941933431177 L 77.7539077014794,13.009461087418645 L 77.75387234801725,13.009491458435347 L 77.75382814298483,13.009528174161684 L 77.75370431036092,13.009625726604034 L 77.75367146451076,13.00965232007749 L 77.75362471031663,13.009689060532292 L 77.75354520684117,13.009761143978032 L 77.75350860519669,13.009794030354797 L 77.75346042580969,13.009817038012711 L 77.75336772388077,13.009848017817674 L 77.753317020627,13.00987355207718 L 77.75328539524756,13.009895135210959 L 77.75324753397031,13.009929283691713 L 77.75322480155344,13.009948270271433 L 77.75320722015276,13.009972204141173 L 77.75317956895839,13.010007492987347 L 77.75314562663935,13.010050345793953 L 77.7530927629341,13.010110900581234 L 77.75303096240195,13.010170296844352 L 77.75290053686265,13.010247922669077 L 77.75279431016052,13.01032403820454 L 77.7527170932208,13.010372352279868 L 77.75269466423694,13.010418833749315 L 77.75268598956534,13.010441421990208 L 77.75268500590933,13.010467679501312 L 77.75264496783048,13.010535595281675 L 77.75256424560794,13.010612691125148 L 77.75250973342966,13.010639514456367 L 77.75241057671437,13.010663063009831 L 77.7523531568261,13.010657426298305 L 77.75229954555876,13.010650495769104 L 77.75226016235975,13.010662161815583 L 77.75223988233638,13.01067237405297 L 77.7522361954662,13.010684912339526 L 77.75221883695849,13.010728840146552 L 77.75219488386206,13.010752841594341 L 77.75216824608935,13.010764372371042 L 77.75214796372072,13.010774586940848 L 77.75211874926498,13.010783645225443 L 77.75208946349319,13.010786455839687 L 77.75205127086326,13.010790609729003 L 77.75196755793417,13.010827744478556 L 77.75186639346227,13.01087410171061 L 77.75161003057973,13.010831200525555 L 77.74856602590505,13.010429951142976 L 77.74718575370872,13.010552956954346 L 77.74711318404287,13.00898219006696 L 77.7463377766156,13.008827828495805 L 77.7413627232758,13.00871788447691 L 77.74059148476236,13.008942800363478 L 77.74015358323982,13.009326764340909 L 77.73667465309985,13.009580261650285 L 77.73601392238758,13.00980399677859 L 77.73596104278951,13.01002132116168 L 77.73596698781135,13.010563171344831 L 77.7360888023484,13.011591521977541 L 77.735825585928,13.012786511520863 L 77.73388258024674,13.011994131462142 L 77.73288909302048,13.012112985845315 L 77.72901972006564,13.012045353028979 L 77.72841185901706,13.01205174935335 L 77.72802563362619,13.012110005271019 L 77.72796893327121,13.012499139613727 L 77.72796866774505,13.012500953141679 L 77.72792282156655,13.012815578247242 L 77.72792815759229,13.013303250292763 L 77.72798934786562,13.013844520265089 L 77.72799764930303,13.014603119058394 L 77.72834225792135,13.015791709645649 L 77.72991982678218,13.018538877550823 L 77.72998399306726,13.019351074324458 L 77.72993526077774,13.01994769742376 L 77.72899303711208,13.02060553657251 L 77.72857092863337,13.02153362136113 L 77.72858042384608,13.022400589481437 L 77.72830945415224,13.022891168083824 L 77.72536678617256,13.026715559706524 L 77.72516826748341,13.028776934588432 L 77.72529480778852,13.030238782231553 L 77.72547009116073,13.031104007320895 L 77.72547720979804,13.0317542317347 L 77.72543262304293,13.03273015345941 L 77.72506060233447,13.034088865035125 L 77.72441818263414,13.035992336922721 L 77.72386967880786,13.036377452568928 L 77.72298543091857,13.036386755302786 L 77.71986982635869,13.034522789088216 L 77.71642799748943,13.033149928342166 L 77.71398982831418,13.032579381563092 L 77.71326783860316,13.032261794059378 L 77.71253522066532,13.030968853588913 L 77.7115104996187,13.029521718897499 L 77.71103018226333,13.028954795649119 L 77.70939539486399,13.027664529841044 L 77.7084918795571,13.027600133093943 L 77.70788231049234,13.027438239564885 L 77.7078343726575,13.02747561035745 L 77.70736140569022,13.027879830351152 L 77.7065400951043,13.02859291542437 L 77.70609915642895,13.028705907004852 L 77.7053254513537,13.028713989321616 L 77.7046046571125,13.028504747744012 L 77.70388327294093,13.028241314311018 L 77.70227060065844,13.027336867616022 L 77.70148894131692,13.027169866336099 L 77.70149689737735,13.027344937672158 L 77.70147435068903,13.028408253682587 L 77.70146997715132,13.028614511864385 L 77.70126766517531,13.028615264355295 L 77.70047538730695,13.028619585125453 L 77.69996241447511,13.02855317960044 L 77.69891120487327,13.028455750164671 L 77.69597512158134,13.027836010718241 L 77.69471539239822,13.027321833263597 L 77.69435994539465,13.027260307913695 L 77.69296158843562,13.029965018389865 L 77.6902818083425,13.032670975755275 L 77.68819597761308,13.03440487397641 L 77.68526783542457,13.034852342515343 L 77.68238743177201,13.034723420364601 L 77.68241421907379,13.035620854768954 L 77.6825135130629,13.036500426571473 L 77.68280917720334,13.036849602341563 L 77.68342920419384,13.038154654094136 L 77.68378243790751,13.040156148449439 L 77.68408801255832,13.04286265087652 L 77.68413129133475,13.046872512715323 L 77.68384062060302,13.050669064827378 L 77.68335663986353,13.051920535446891 L 77.6827617968527,13.052328684600472 L 77.68090597293386,13.052882779925548 L 77.6798197070485,13.05323366956302 L 77.67796344210909,13.054144188718105 L 77.67785640084011,13.054470459304413 L 77.67785661897685,13.054490701901413 L 77.67786224029851,13.05501233608607 L 77.67786866398977,13.055608398898094 L 77.67787275194807,13.055987710529683 L 77.67787684006046,13.056367024461291 L 77.6783388800678,13.058204819374332 L 77.67843794458665,13.059176507332745 L 77.67864796498587,13.061236455011272 L 77.67866666769393,13.06297045535481 L 77.67834963793979,13.064328582579389 L 77.6767025222058,13.065375330561032 L 77.67649252377254,13.066407184434551 L 77.67610969083711,13.066790507236947 L 77.67406570094776,13.066920061328123 L 77.67069977682357,13.067496820918326 L 77.6698153770437,13.067505963561024 L 77.66915033181627,13.067350254725964 L 77.6683741508306,13.067141499646846 L 77.66685955041768,13.06568763454845 L 77.66659282495732,13.067365270406224 L 77.66468821227537,13.06816641989235 L 77.66007180484384,13.068839201845355 L 77.65880984920753,13.070102594597293 L 77.65788178813877,13.072769243713493 L 77.65646707664172,13.07465939730744 L 77.65567581184415,13.075122855010973 L 77.65568625382002,13.075406094277316 L 77.6552538180022,13.07573103533518 L 77.65476734133395,13.076765734780231 L 77.65407656443547,13.079374172702158 L 77.65361210912208,13.082468034380705 L 77.65361790859713,13.083009920732954 L 77.65361964846336,13.083172484090044 L 77.65345613305885,13.083390946923222 L 77.65251638650369,13.083400609700401 L 77.65013763905527,13.083262467171858 L 77.64881687407977,13.082919859771163 L 77.64886650872525,13.082501706906276 L 77.64649846460199,13.085228351199527 L 77.64654688387193,13.0869429125212 L 77.64199346846061,13.087651948676413 L 77.64853759986066,13.099341654170448 L 77.64910280787745,13.10480027509118 L 77.63712898098882,13.106744615664642 L 77.63940266688945,13.114007284260357 L 77.630059049938,13.125031903463467 L 77.62066367064065,13.131254691073822 L 77.61515413023336,13.131169443600198 L 77.61517120146893,13.13120607254803 L 77.61511385968464,13.131217673576506 L 77.61457614045511,13.131861632499895 L 77.61442898742142,13.131984373942087 L 77.61393279920297,13.132398248044781 L 77.61366639555058,13.13262340684726 L 77.61366598281005,13.132613170239763 L 77.61310516122258,13.133042749181428 L 77.61244924117291,13.13349442735632 L 77.61246359469718,13.133501918176473 L 77.61232291044772,13.133595917364646 L 77.61180045002334,13.133873832704683 L 77.6114468290157,13.134044020808863 L 77.61098171391814,13.134051654211596 L 77.61059281434316,13.134091374643438 L 77.61026456816663,13.134114580907514 L 77.61009425713578,13.134116310005052 L 77.60972547443349,13.134076777648408 L 77.60843470083925,13.134089876782673 L 77.60785320252263,13.134095984022377 L 77.60765598735092,13.134096830340214 L 77.60653281901821,13.134108219897472 L 77.6057487203657,13.134116168190793 L 77.6056320425763,13.134119952576977 L 77.60555780055218,13.134122358617109 L 77.60544967089149,13.134121315149288 L 77.60541352465799,13.134128351433528 L 77.60533688084598,13.134144001437443 L 77.60532175263435,13.13416059377977 L 77.60501906034582,13.13426693461935 L 77.60480799278272,13.134410750086744 L 77.60401937069068,13.134618750652487 L 77.60364659607393,13.13474281485532 L 77.6034658274014,13.134747894962807 L 77.60191902009517,13.134751872922756 L 77.60054235454609,13.134780405049876 L 77.59987576351216,13.134788756785735 L 77.59972385002847,13.13479877161249 L 77.59903434665777,13.134789815197458 L 77.59778871097974,13.134808244860457 L 77.59651309078255,13.134809449827765 L 77.59586028623407,13.134801434791626 L 77.59579770347202,13.134802066701102 L 77.59571134108006,13.13480878305567 L 77.59568172394471,13.134826605928025 L 77.5951350096488,13.134783594188024 L 77.59432752856429,13.134816745048703 L 77.59317512219869,13.134799203121597 L 77.5923333686527,13.13480769237906 L 77.59161914948324,13.134814893265755 L 77.59125668622393,13.135118569298186 L 77.59099284256004,13.135096225189983 L 77.59061872910958,13.135099995440143 L 77.59013425587396,13.135121545248003 L 77.58980265232638,13.135124886015134 L 77.58943651573092,13.135078569627769 L 77.5890192753205,13.135024434415275 L 77.5886192151796,13.134986793697554 L 77.58817686955113,13.134971246478198 L 77.587569782058,13.134977357612158 L 77.58703411650633,13.134982748600354 L 77.58646274075521,13.134988497749676 L 77.58581957356576,13.134959966075492 L 77.58521211853825,13.134931071331996 L 77.58485427644392,13.134864663820437 L 77.58431824370973,13.134835051087045 L 77.58362926772946,13.134824854441227 L 77.5832496732538,13.134811272173394 L 77.58314608494167,13.135399738032204 L 77.58308208961455,13.136341193121721 L 77.58297328534428,13.13662194875807 L 77.58296183564785,13.136798152548668 L 77.58291555162647,13.137459286339636 L 77.58286950565342,13.13814271302236 L 77.5828196691938,13.13846384025424 L 77.58279106902722,13.138526688574816 L 77.58265809113144,13.139036336369745 L 77.5825549544942,13.13934757317665 L 77.58247581071649,13.139663781912745 L 77.58244474195178,13.139744902936426 L 77.58212422989308,13.140660174025404 L 77.58181964414831,13.141272804612148 L 77.58141331314737,13.141751973135381 L 77.5814080634353,13.141803744479814 L 77.58111713557918,13.142319720172246 L 77.58091600306948,13.142592589098781 L 77.58006004206226,13.143475578068866 L 77.57949604194309,13.143555597374297 L 77.57946964568708,13.143579709591306 L 77.57842584976444,13.143658812088928 L 77.57804766597965,13.143664894492899 L 77.5774277775908,13.143627119822797 L 77.57707340845788,13.143653844120989 L 77.57695057507341,13.143664345848961 L 77.5767709038691,13.143666147874784 L 77.57657700253317,13.14366345763572 L 77.57620255913477,13.143579161920027 L 77.57583757117973,13.14349477312944 L 77.57577152471708,13.143509337501298 L 77.57251024990921,13.14281603181657 L 77.5725571944959,13.1416664750666 L 77.57166709888521,13.140569874968403 L 77.57118926291746,13.140059147855364 L 77.56960101179996,13.13742660493076 L 77.5689907287647,13.13641643059359 L 77.5689059989938,13.136276184310184 L 77.56859085850434,13.134377307111974 L 77.56839216677974,13.133192063124964 L 77.56825742304346,13.131435400797946 L 77.56813241176316,13.130614721781866 L 77.56799595310031,13.129333763532895 L 77.56789684093906,13.128249201594096 L 77.56782518070644,13.127196305312655 L 77.56862025574898,13.127049491899554 L 77.56675253962311,13.127377317480011 L 77.56616781522185,13.127335923877027 L 77.5661623900246,13.12733183112017 L 77.56611370156838,13.127328082081155 L 77.56610051404398,13.127328213641732 L 77.56606405899723,13.127328577318828 L 77.56469037582328,13.127568524394183 L 77.56441802483957,13.127616094630126 L 77.56318328261071,13.127860403213607 L 77.56315309142227,13.127870653829946 L 77.5631371337141,13.127870812848355 L 77.56311317805934,13.127869097229981 L 77.56298315984054,13.127450051288859 L 77.56298086186753,13.127420749915357 L 77.56130753717966,13.12252811780064 L 77.5612353976465,13.122410662048887 L 77.56125928319346,13.122397918850103 L 77.5603809031048,13.120027890068348 L 77.55959517917255,13.116991067858327 L 77.55824629151545,13.112497159138185 L 77.5567513905408,13.10943861048474 L 77.55486380719782,13.104785771882497 L 77.55465150074477,13.102824982248979 L 77.554650834231,13.10282235915892 L 77.55459116154765,13.10226770512934 L 77.55427598027696,13.100488834936689 L 77.54947462711542,13.101110081762824 L 77.5462570968831,13.101264830132099 L 77.54429237532587,13.101284235305261 L 77.54176469246065,13.1006787577565 L 77.54050880646554,13.099073976165737 L 77.53938403464305,13.096814238965344 L 77.53816168763433,13.094583122394548 L 77.53709291779798,13.091883787249733 L 77.53691604563498,13.091545567905742 L 77.53694179585158,13.091502107871259 L 77.5367742935215,13.09107904336346 L 77.53671797501944,13.090956915785332 L 77.53644236301213,13.090358321985287 L 77.53629209147135,13.089880145149213 L 77.53540366153251,13.088468328117294 L 77.5341135352677,13.087393962114655 L 77.5331195722491,13.08682967107941 L 77.53215368898199,13.086212067810148 L 77.53116261686174,13.085639847660191 L 77.53077233592695,13.085626082364573 L 77.53026987789688,13.085492193958325 L 77.52981088368215,13.085347202025986 L 77.52933946989512,13.085052830829992 L 77.5288562957789,13.084673152114883 L 77.52868932192126,13.084322406926587 L 77.528652373863,13.084073796336844 L 77.52828325760544,13.08383012451876 L 77.52816372722364,13.08373445061796 L 77.52782676987854,13.084007672595924 L 77.52794220400774,13.084297236617733 L 77.5279437369327,13.084447579939951 L 77.52787309972955,13.084571377639143 L 77.52781800112562,13.08480873146479 L 77.5277383433448,13.084894089490131 L 77.52768123273871,13.0849341184007 L 77.52759501837738,13.084940601850343 L 77.52747993254516,13.084936090476843 L 77.52737635025139,13.084931466363905 L 77.52709539429954,13.08501879605234 L 77.52639768663344,13.08541468216139 L 77.52610568562898,13.085547227329158 L 77.52597322913867,13.085531607765965 L 77.525339795245,13.085521775910259 L 77.52514294817013,13.08564830031532 L 77.52432026493716,13.085886095256006 L 77.52410809361047,13.085950191372437 L 77.52410084104596,13.086098541769625 L 77.52164512364494,13.087009561229147 L 77.52064786598356,13.085226655541266 L 77.51865431916119,13.082507577154095 L 77.51730222398899,13.080952976550607 L 77.51733848748908,13.08009188538169 L 77.51764934710229,13.078635494799816 L 77.51749969564581,13.07737626517415 L 77.51708916505675,13.075922401421936 L 77.51699610716113,13.075433171989227 L 77.51687117235211,13.075024191782783 L 77.51677994733983,13.074961647339276 L 77.51654262386462,13.074955502335994 L 77.51443255765776,13.075710311563888 L 77.51245926173378,13.076416174922578 L 77.51170123197532,13.076541745485011 L 77.50993537956907,13.077033846918889 L 77.50802845640975,13.07794535640874 L 77.50726097943357,13.078789598417353 L 77.50676863587677,13.079543488807582 L 77.50626647315825,13.080019183506314 L 77.506185690813,13.080315505979163 L 77.50607338525998,13.080603803414116 L 77.5059256201194,13.080966666778124 L 77.5057482843618,13.08115143320507 L 77.5056285595718,13.081214808583018 L 77.50533338542813,13.081324165780833 L 77.50493991215338,13.08142543099531 L 77.50470585382382,13.081446430489285 L 77.50456095579614,13.081441383703341 L 77.50385419308314,13.080539641981398 L 77.50385096266265,13.080522782036393 L 77.50384247855527,13.080524698494198 L 77.50329512525876,13.079826339934412 L 77.5016949604111,13.077988656117451 L 77.50167843569204,13.077987791638312 L 77.50162480926106,13.077989063048793 L 77.50087258243455,13.07710457194127 L 77.50085749628415,13.077026867198269 L 77.49866714126341,13.074511289032467 L 77.4985848835211,13.074515311595558 L 77.49839058445698,13.07462801597371 L 77.49726340806332,13.074848379875062 L 77.49672602643975,13.075016176349738 L 77.4963118049349,13.075060833775153 L 77.49597968819924,13.075023392462274 L 77.49505261375899,13.07481473093785 L 77.49457400711624,13.074855289344667 L 77.49432772153943,13.07491575593784 L 77.49418976774136,13.074946132232128 L 77.49400214664259,13.074947944630708 L 77.49380458509785,13.074943397487338 L 77.49330871581088,13.07489423249869 L 77.4930064541637,13.07485012445973 L 77.49290499494838,13.074826901459556 L 77.49279852501533,13.074796464153724 L 77.49271175758118,13.074760997908221 L 77.49261589212774,13.073026392752501 L 77.49275500778492,13.069837814209283 L 77.49279420436561,13.0698073167652 L 77.49278405841096,13.06961647890095 L 77.49269921631482,13.068707260816165 L 77.4926554730763,13.068284936967146 L 77.49277443280981,13.06537941394839 L 77.49278754022846,13.064717734613058 L 77.49277811027336,13.064433842315214 L 77.4930238515135,13.06259616663324 L 77.49308014373132,13.062159404648874 L 77.4928755204073,13.061923441398024 L 77.4923179465502,13.060778785870397 L 77.49097780647915,13.056911599368288 L 77.49110009227472,13.056796665660649 L 77.4916489994671,13.05589586061924 L 77.49227026923103,13.054875479034825 L 77.49241804833227,13.054545174426025 L 77.4924176357319,13.054504033404692 L 77.49243332161892,13.053852815617612 L 77.49242334422628,13.053596359793646 L 77.492423077258,13.053569738042624 L 77.49259795193086,13.053529329071276 L 77.49260513833491,13.05350747647353 L 77.49257108321933,13.053311759435879 L 77.49250909738919,13.053038862598077 L 77.49251260048713,13.052896027534635 L 77.49251096900923,13.052487010282421 L 77.49255341865894,13.051653496395762 L 77.49197642022001,13.051762339165839 L 77.49188460703883,13.051241714336843 L 77.49176816537538,13.050750828318522 L 77.49193294438008,13.050678510808522 L 77.49225771240833,13.050568888809087 L 77.49225651551613,13.050449499081605 L 77.49219005940888,13.04973049832461 L 77.49216516983083,13.049217631608137 L 77.49210320235281,13.048617991028296 L 77.49208189526607,13.04813413338845 L 77.49206772752659,13.048034230265685 L 77.49188160096695,13.047526140824447 L 77.49162380243762,13.046763805901154 L 77.49134922919195,13.045969359366698 L 77.49110511684854,13.04525852117403 L 77.4910277736345,13.045094685570364 L 77.4909880845837,13.045075705972083 L 77.49069433187566,13.04518377541454 L 77.4894088472015,13.045698610097967 L 77.48907706162488,13.045873913651901 L 77.4885082602195,13.0460471922782 L 77.48783422515534,13.046230090541872 L 77.48732738695006,13.046357832587532 L 77.48645487628607,13.046540244044765 L 77.48627134050024,13.046619459586786 L 77.48627189967209,13.046675388452421 L 77.48630765686856,13.046818091951017 L 77.48533362763371,13.047117717995897 L 77.4850698039594,13.0471331956988 L 77.48314507000522,13.047873471700614 L 77.48194815314731,13.04825423424838 L 77.4818229546088,13.048323316302938 L 77.48148350214946,13.048293323960634 L 77.48140464142965,13.04830698909622 L 77.48114602797237,13.04833958913895 L 77.48101063106454,13.04840543105331 L 77.48087833029457,13.048392160618691 L 77.48086000822872,13.048264882694093 L 77.48082448464478,13.04778330777518 L 77.48074343257018,13.047577548777376 L 77.48054501145145,13.047484791000102 L 77.48018060893368,13.047471071751815 L 77.47993218437183,13.047498382477825 L 77.47970228954212,13.04703676917627 L 77.47959732480089,13.046633311235533 L 77.47953585773357,13.046190710294896 L 77.47972934166417,13.045788691724779 L 77.47980794675186,13.045749212327703 L 77.47992178615276,13.045722306176515 L 77.4800705594659,13.045677849708476 L 77.4803053851335,13.045460460400447 L 77.48049240695873,13.045290857155878 L 77.48066459449717,13.04495358572271 L 77.48105117283207,13.044110830102689 L 77.48112930271388,13.044024024767474 L 77.48119474190413,13.043984671316373 L 77.48124262604996,13.04394548618572 L 77.48125106022006,13.043910983761078 L 77.48124620054773,13.043863700149583 L 77.48119561026674,13.04363183398738 L 77.48120808866267,13.043562868921198 L 77.48120350707124,13.043540858725773 L 77.48119232655755,13.043533705530526 L 77.48117529874129,13.043514826154164 L 77.48115435804864,13.043527021978672 L 77.48113684037152,13.043539682268948 L 77.48110212168339,13.043585397854555 L 77.48100187209225,13.043744286026898 L 77.48097435644719,13.04376996239533 L 77.48095778597944,13.043779197345604 L 77.48092634960763,13.043783130101176 L 77.48090397046003,13.043767008182753 L 77.48089266318675,13.043747146442326 L 77.48082737228644,13.04332663447825 L 77.48082715505257,13.043304853046012 L 77.48085107580818,13.043290102919814 L 77.48089167798068,13.043277008545092 L 77.48096926927347,13.043259923557477 L 77.4811258691544,13.043182184472471 L 77.48125069097404,13.043073888110749 L 77.48134808532265,13.043000343325215 L 77.48143990866843,13.042925038567708 L 77.48146365061955,13.042892135647735 L 77.4815076640672,13.042849962265842 L 77.48155906633609,13.042805902347688 L 77.48154288839973,13.042750423734022 L 77.4815474393153,13.042711656433319 L 77.48156653380083,13.042646122817624 L 77.48161792507292,13.042535933020186 L 77.48165935524169,13.04205225095542 L 77.48172649111989,13.041853140903221 L 77.48184287301098,13.041641454858695 L 77.48189173281709,13.041590158908559 L 77.48197766835648,13.041543348431054 L 77.4820241838216,13.041504178688957 L 77.48205808961373,13.04143850533851 L 77.48214555076726,13.041297285801367 L 77.4821423325081,13.041222286416417 L 77.48208246372025,13.041159931757182 L 77.48175821226856,13.04107348781827 L 77.4813322821556,13.041034229006918 L 77.48115126829917,13.041020099731327 L 77.48118156508276,13.040447271582064 L 77.48116148297237,13.040369063797675 L 77.48073677380313,13.039356861114488 L 77.4806514258319,13.039113774375581 L 77.48031652540016,13.038791775740918 L 77.48025503083423,13.038741109596545 L 77.48018062291078,13.038348925619786 L 77.48007044532378,13.038302648623269 L 77.47981457789143,13.038349423243885 L 77.47981133743586,13.03802424629471 L 77.47980809709122,13.037699071649342 L 77.47980404674367,13.037292599282754 L 77.47975853978726,13.036886523990963 L 77.4794622635951,13.036279598190553 L 77.47916963530612,13.03603849547755 L 77.47871279329509,13.035961566316393 L 77.47804745420471,13.035764680482414 L 77.47746300851381,13.035363763957164 L 77.47700455445346,13.035124242556542 L 77.47683548784569,13.034800653464528 L 77.47629007644657,13.034155452369228 L 77.475613427458,13.032820435675603 L 77.47569108521368,13.032291229213795 L 77.47622274472964,13.031554425082213 L 77.47745471097674,13.03036376250679 L 77.47765835431795,13.029995955455673 L 77.47761285437781,13.02958988102409 L 77.47744257898529,13.029144347121063 L 77.47701710297797,13.028050838064646 L 77.47691559768293,13.026181858818994 L 77.47619226336514,13.024318821965597 L 77.47622725622854,13.023668069421248 L 77.47651461518277,13.023380764891959 L 77.47680116296992,13.023012166817876 L 77.47716941123262,13.02252083603318 L 77.47716294545249,13.021870480026461 L 77.47694960821612,13.021262751633746 L 77.47588577962412,13.018508640047079 L 77.4752019233368,13.016441962098542 L 77.47401740934012,13.014054847522402 L 77.47284662635397,13.013049731686538 L 77.47234273484949,13.01240411795429 L 77.47192296283119,13.011879653169798 L 77.47149594173837,13.010623531929031 L 77.47136835915538,13.010299539449202 L 77.47132529544056,13.010137342211758 L 77.47091035995636,13.01010064443302 L 77.47057873462695,13.01010380323729 L 77.4702459037809,13.009985018512724 L 77.47015977571299,13.009660630317864 L 77.47015534754708,13.009213507169502 L 77.47014850435788,13.008522500106094 L 77.47014568668087,13.008237966957894 L 77.47030948548382,13.008033153469896 L 77.4706419133082,13.008111289338267 L 77.47114055293662,13.008228492292792 L 77.47272220831836,13.008863841793275 L 77.47315481088035,13.00844372088553 L 77.4733765997593,13.008348002283816 L 77.47366796394128,13.008082453197892 L 77.4736639331151,13.007675978010097 L 77.47345344606961,13.007352777170508 L 77.4730356948979,13.007031547153007 L 77.47294997038954,13.006747807115072 L 77.47294553825196,13.006300684812242 L 77.47306465821494,13.005771083533398 L 77.47346507714599,13.00434447440216 L 77.47339176388901,13.003994177950391 L 77.47354978022412,13.003960620795363 L 77.47336486707049,13.003269103458466 L 77.47311694311952,13.002681090904339 L 77.47315517413365,13.002355516391491 L 77.47331775623913,13.002028756890503 L 77.47368719763594,13.001659375206598 L 77.47368357172783,13.00129354898205 L 77.47363930066847,13.001009411477666 L 77.47355277084944,13.000644377592613 L 77.47325777634222,13.000159370974254 L 77.4730062498401,12.999877210175159 L 77.47233940387991,12.99951770119154 L 77.47208586391483,12.999032297765693 L 77.47212208397457,12.998503486360876 L 77.47236756946067,12.998175940434393 L 77.47269636023545,12.997888249365587 L 77.47294305229818,12.997682643763403 L 77.47294103913664,12.997479407053605 L 77.47285652785479,12.997317606835843 L 77.47231404297237,12.996956912031639 L 77.47222872494771,12.996713815400591 L 77.471932533916,12.996106865078701 L 77.47101779881872,12.995831014281144 L 77.47076587749514,12.995508200719996 L 77.47059645489968,12.99514395109013 L 77.47055098318776,12.99473786891163 L 77.47050551176869,12.994331788999881 L 77.47050462931153,12.994242590016269 L 77.4703690793116,12.994254151523075 L 77.47031117617834,12.994223888698007 L 77.47025749697265,12.993561928940156 L 77.4701422670339,12.992396112154712 L 77.46994561517431,12.991957928989354 L 77.46984630492419,12.991897468108146 L 77.46978946138773,12.99171883048844 L 77.46948095590422,12.991333331662412 L 77.46927049139697,12.99101012361083 L 77.46910665132826,12.990368158103275 L 77.46974185644359,12.990072815077541 L 77.4697611523394,12.99003796681652 L 77.46973701584213,12.989980422402382 L 77.46924577813324,12.989553717103048 L 77.46874112057617,12.988961518554119 L 77.46779803759135,12.988027531302425 L 77.46775390711409,12.987963956861448 L 77.46757065008883,12.987763243342966 L 77.46738801856188,12.987564695604595 L 77.46736950851168,12.987410208328216 L 77.46736429041432,12.98688178930299 L 77.46744518348864,12.986677766627633 L 77.46777396604323,12.986390080977674 L 77.46942551085053,12.985723967256606 L 77.4715426204082,12.98484348758211 L 77.47217774219418,12.984594112797366 L 77.47244383460469,12.98449529153958 L 77.47254567330599,12.984467360094513 L 77.47260812619312,12.984428249996437 L 77.47261952519135,12.984389625666259 L 77.4725474653973,12.98420174035109 L 77.47239816244752,12.983848660751379 L 77.47207409921309,12.983094054795165 L 77.47300810705524,12.982734173069419 L 77.47249477973874,12.981819891753235 L 77.47316907075745,12.981518281563991 L 77.47382396869745,12.97779578104906 L 77.47429962310046,12.975596087553699 L 77.4743346355205,12.974945333421692 L 77.47433021212257,12.974498210497698 L 77.47381716780554,12.972917691400273 L 77.47381274607007,12.972470570544047 L 77.47405499620734,12.971817845067779 L 77.47408955101646,12.971462845252834 L 77.47413025065808,12.971044753469165 L 77.4740835791873,12.970516730688265 L 77.47399706763225,12.970151692080421 L 77.47370292320784,12.969747974812218 L 77.47344639495014,12.969563071237216 L 77.4732121744852,12.969572519255298 L 77.47310209260685,12.969573565793995 L 77.47301608818489,12.96957438339804 L 77.47289177687402,12.969528326937079 L 77.47280470548516,12.969421181950299 L 77.47274144636482,12.969299854004001 L 77.4727230508264,12.969165523883078 L 77.47266046186273,12.969098634992998 L 77.47245188705067,12.96888129962627 L 77.47192796199025,12.968434144119437 L 77.47187599527379,12.96839752130334 L 77.47183781972721,12.96836414209858 L 77.47183070753935,12.968340591718805 L 77.47176074368416,12.96787562352971 L 77.47171272360295,12.967542042137962 L 77.47170307894787,12.967262079065124 L 77.47168504515159,12.967177895579264 L 77.47159780926046,12.96693239528125 L 77.47159241409304,12.966706097158001 L 77.4714973563821,12.966636442269241 L 77.47143824238422,12.966572894558293 L 77.47141730122704,12.966542726189052 L 77.47142017546854,12.966485338998861 L 77.471430061811,12.966441379202644 L 77.47144679609396,12.96639398433434 L 77.47149683226021,12.966234923409306 L 77.47157812289309,12.966106751686203 L 77.47156411057925,12.965519135026005 L 77.47165820931349,12.964567201438701 L 77.47221351140251,12.960085372400231 L 77.47220625278582,12.960029517819214 L 77.47222320250555,12.959294517048306 L 77.47227341559467,12.958420821027772 L 77.47217281399689,12.957007205827685 L 77.47191466554125,12.954821912454285 L 77.47148527157921,12.952406207821316 L 77.47219133845482,12.952034882323723 L 77.47272745761533,12.951565726161716 L 77.47238396287749,12.951005476929724 L 77.4718724825172,12.950546263556047 L 77.47119596286994,12.950486384805336 L 77.47110145374131,12.949641997335624 L 77.4713968005387,12.949639195679687 L 77.47230774822316,12.94954925062591 L 77.47495488211268,12.94899564880502 L 77.47615270943413,12.9485777548279 L 77.4761653388844,12.948532748967128 L 77.47560105663909,12.9469848634842 L 77.47542846573538,12.94636142728036 L 77.47532842886349,12.946049897429017 L 77.47514518745879,12.945448417376147 L 77.47503888603329,12.94506358568693 L 77.47446928900663,12.943455591408476 L 77.47398152480913,12.942768979751591 L 77.47360930306449,12.942364727414516 L 77.47337149122804,12.942170315038586 L 77.47318073674523,12.941963888617915 L 77.47311471991048,12.941844387387746 L 77.4730726559765,12.941768244915341 L 77.47307182433912,12.941764739369203 L 77.47284435596129,12.941342368279761 L 77.4726173113909,12.941043735687225 L 77.47250900113015,12.94082495920627 L 77.47253087940884,12.940651219317092 L 77.47274111055421,12.940440988723623 L 77.47291687514564,12.940323632464235 L 77.47418782984249,12.940000070907068 L 77.47452234669298,12.939824823239771 L 77.47492952994924,12.93960586607696 L 77.47536439191445,12.939228913569298 L 77.47584353224848,12.938894557043907 L 77.47633728802916,12.938560063343617 L 77.47655400815206,12.938299896207024 L 77.47690172405702,12.937981127099164 L 77.47726547410039,12.937805598960374 L 77.47771707020168,12.937643576158383 L 77.47831314692499,12.937308107213827 L 77.47877836608895,12.937045574442125 L 77.47920100952463,12.936912503374556 L 77.47971263248867,12.936907638439967 L 77.4802695298123,12.937045732885363 L 77.48091399041597,12.93716865705761 L 77.48207475580408,12.937759861520176 L 77.4845578001976,12.937535462377681 L 77.48381527171124,12.934206569540532 L 77.48376254047446,12.933823071254222 L 77.483624915479,12.93302614786874 L 77.48347916095295,12.932599493735312 L 77.4834294712633,12.932345455998163 L 77.48342683849218,12.932079405326146 L 77.48350641539123,12.93177786340576 L 77.48369155351575,12.931417471163284 L 77.48375933609067,12.931116041538868 L 77.48375613082581,12.930792148786669 L 77.48396657544639,12.930605046700771 L 77.48394230078398,12.930535867699046 L 77.48381040233909,12.930317318981144 L 77.48351019925065,12.929776451389678 L 77.48323506823218,12.929385736764312 L 77.48313626174851,12.928935498285593 L 77.48288300389878,12.928371045868355 L 77.48265367575638,12.92784106925179 L 77.48252166815855,12.927610953232152 L 77.48238049539849,12.927647002613725 L 77.48217704168158,12.92734815350221 L 77.48207090719809,12.927349163108923 L 77.48197210423635,12.926898925913415 L 77.48188418073968,12.926356035812217 L 77.48184628639314,12.926101885001001 L 77.48170282994977,12.925906581116477 L 77.48152422131594,12.925734750451703 L 77.48134504372345,12.92550508196966 L 77.48123708104593,12.92532100975162 L 77.48124704348349,12.925135816296159 L 77.48124544322614,12.924973869537462 L 77.48118453652084,12.924777780316338 L 77.48104096484249,12.92457090970027 L 77.48105070128743,12.924362581604326 L 77.48108390835003,12.92414246084898 L 77.48112947808679,12.923980065647482 L 77.48116434046293,12.923889544091649 L 77.48120996913006,12.923771067246411 L 77.4812744103293,12.923631395794281 L 77.48121066344764,12.923564495095297 L 77.48100917900096,12.923290189346652 L 77.48092979405645,12.922971939585562 L 77.48042802867224,12.923149476701573 L 77.47958684474665,12.923514931873859 L 77.47894849515933,12.923750122259568 L 77.47879271726957,12.923401223624131 L 77.47941325640343,12.923194705851962 L 77.47925902912166,12.922633608724649 L 77.47918924365739,12.922019618620638 L 77.4790320069624,12.922229468077175 L 77.47853618049675,12.922567547388969 L 77.47830583817104,12.922903105386034 L 77.47817035538328,12.923164836460366 L 77.47785567320015,12.92356370349755 L 77.47708332040658,12.923862732747475 L 77.47614043257718,12.924100874054973 L 77.47546190750539,12.924221905438738 L 77.47479476247882,12.924362441434317 L 77.47459650474694,12.923641402233992 L 77.47433977809291,12.922567671892827 L 77.47431117643643,12.922519652332307 L 77.47414970929285,12.92254877688876 L 77.47386796624544,12.922731456078033 L 77.47378421142403,12.922745963612131 L 77.47353598358353,12.922788966931233 L 77.47316583605405,12.92307703526375 L 77.47272092744713,12.92343867780669 L 77.47266708169124,12.92348244558037 L 77.47254825972968,12.92346765549593 L 77.47247793860312,12.923468321647714 L 77.47240727794086,12.923434499589943 L 77.47233573450356,12.923311004045287 L 77.47223334900919,12.922911860050633 L 77.4718039288631,12.921439646843993 L 77.47115122880487,12.919431460881626 L 77.47099928347752,12.918998293328624 L 77.47094529629634,12.918872044944782 L 77.47089153812308,12.918769074714964 L 77.47084315607295,12.918676404264318 L 77.47075176809052,12.918501356178913 L 77.47056767226836,12.918016752852774 L 77.47050813153382,12.917862099998185 L 77.47050731762302,12.91777932541052 L 77.47051603486095,12.917592981626886 L 77.47051830141132,12.917588961004373 L 77.46606110235584,12.910188259606691 L 77.4654413426385,12.909258149552642 L 77.46515348149384,12.909092392986228 L 77.4650166116808,12.908756738830867 L 77.46476360991043,12.908253707259473 L 77.46466270310489,12.90769308079727 L 77.46465848357369,12.90726257900061 L 77.46465353040588,12.906757207306484 L 77.46437980088474,12.90608589747264 L 77.46405029908033,12.905564864280565 L 77.46383803123355,12.905323515767753 L 77.46332011170618,12.905047609587315 L 77.46295685200745,12.904976156236781 L 77.46251800410708,12.904980291470476 L 77.46169681376848,12.904913150550126 L 77.46152490738798,12.904896050420017 L 77.460641167911,12.904286636795828 L 77.46010252514884,12.903842444973128 L 77.46022203528052,12.900453128968277 L 77.46210674656149,12.897589742618226 L 77.46245718686683,12.896862066291318 L 77.46499223198416,12.893115655545074 L 77.4654742143662,12.892382509717311 L 77.46557666655832,12.892241847431114 L 77.46606825364793,12.8915474668002 L 77.46667734833794,12.89073556629236 L 77.46721020037484,12.890014602904696 L 77.46773412154423,12.889290813385434 L 77.46819432043436,12.888724779416474 L 77.46826197528523,12.88866593438304 L 77.46839210514807,12.888485952949436 L 77.46913146930842,12.891242492862391 L 77.46994095126848,12.893327940847165 L 77.46995635342195,12.89338600217884 L 77.4703131198731,12.894069465846314 L 77.47033744804251,12.894130354900135 L 77.47035293838256,12.89419714462613 L 77.47059960529695,12.894544052922509 L 77.47133201691211,12.895416046775626 L 77.47201355112885,12.896241955550177 L 77.47244937855403,12.896850230164645 L 77.4728661054675,12.896819014956051 L 77.47336092100439,12.89657042505489 L 77.47381350274023,12.896240934310763 L 77.47488159873399,12.895295841272603 L 77.47520987108038,12.89496752507794 L 77.47539309723022,12.894784276303053 L 77.47538489253157,12.89469439228464 L 77.47538402762721,12.894606441853258 L 77.4753835188723,12.894554707257404 L 77.47542864011132,12.894316282167903 L 77.47553278538732,12.894180777269304 L 77.47565863606442,12.894107150027258 L 77.47573773761384,12.894106401318709 L 77.47582206204663,12.894100431290424 L 77.47592768499484,12.894114953993574 L 77.47609123998238,12.89414412461214 L 77.47617584241573,12.894143647513024 L 77.47622847341118,12.894132800910478 L 77.47627061253415,12.894127230111003 L 77.47631842778088,12.89416299198092 L 77.47631442634867,12.894292377155852 L 77.47638932530053,12.894400318636583 L 77.47656416177149,12.894481445291998 L 77.47663804053218,12.894485919911677 L 77.47673265799864,12.894453981267612 L 77.47681074151083,12.894349763133695 L 77.47709686137549,12.893948665854364 L 77.47727346090818,12.893672778722046 L 77.47773729581417,12.89310960800441 L 77.47794082047665,12.892890376766275 L 77.47810322685957,12.892780187764215 L 77.47817152816107,12.892753672203444 L 77.47858537510677,12.89247036267491 L 77.47874808649951,12.892391213127876 L 77.47895703619038,12.892187452415367 L 77.47911269297266,12.891927283194287 L 77.47915674081308,12.891580217862355 L 77.4791808924933,12.890819429094277 L 77.47917898418171,12.89008993221388 L 77.47918323680037,12.889986415648407 L 77.47923505411231,12.88989279438087 L 77.47930934507687,12.889787943374724 L 77.47943366047602,12.889709828328725 L 77.4795441452054,12.889682910506634 L 77.47969174682308,12.889676337507714 L 77.47986090153077,12.88971612756899 L 77.48000353753557,12.889740644088658 L 77.48033186028188,12.88987722479722 L 77.48052266793448,12.889973720203168 L 77.48064526506006,12.890028761163135 L 77.4807561745365,12.890121547508201 L 77.48090991403605,12.890202871579023 L 77.48100478401248,12.890196797809647 L 77.4810415952601,12.890186102739102 L 77.4811042626327,12.890123423245013 L 77.48113001915539,12.890061091462837 L 77.48151145620645,12.88970047826519 L 77.48179366667375,12.889439107832182 L 77.48207455082584,12.889043231113208 L 77.48214572527914,12.888773516314025 L 77.48221368725923,12.888177876720937 L 77.4822282333549,12.888048394232555 L 77.48225900574218,12.887960144084543 L 77.48232203159222,12.887933677773287 L 77.4823531608921,12.887881643284784 L 77.48235285495424,12.887850603600956 L 77.48232623440366,12.887824987694573 L 77.48236192106977,12.887700476503117 L 77.48236110523102,12.887617702470292 L 77.48240739474818,12.887498264848592 L 77.48244876522168,12.887415090623955 L 77.48275817496456,12.886703338519471 L 77.48280917209478,12.886526942897914 L 77.48285408206023,12.88626782327622 L 77.48284819894168,12.886205793933046 L 77.48277857422694,12.88609780427377 L 77.48270905389803,12.886000159579998 L 77.48265601479353,12.885969620143642 L 77.48257087785699,12.885892820137775 L 77.48251271818084,12.885877849374797 L 77.48244933830266,12.885868102263293 L 77.48238093744688,12.885884273511905 L 77.48230484208325,12.885913928420566 L 77.48219719056914,12.885968798096032 L 77.48210232227854,12.88597487200464 L 77.48199670530957,12.885960351210159 L 77.48190163547827,12.885945732662204 L 77.48171717238186,12.885957827910916 L 77.48159081797728,12.885979722663267 L 77.48141183222403,12.886012462381002 L 77.48127477772782,12.886018935979495 L 77.4810538628909,12.886077943764441 L 77.48087487926546,12.8861106808046 L 77.48079578053503,12.88611143060888 L 77.48061080768177,12.88607179531064 L 77.48057368894139,12.886051450509603 L 77.48052607874448,12.88603637929851 L 77.48045747383792,12.886031855377379 L 77.4803521624829,12.886048375953646 L 77.48017322732518,12.886086290849471 L 77.47994191765125,12.886160916421336 L 77.47957913210416,12.886273004337644 L 77.47935831585814,12.886342355867978 L 77.47903142401945,12.88635062675156 L 77.47888904690889,12.88635197539554 L 77.47880426711524,12.886311387431197 L 77.4786923049302,12.886188274899757 L 77.4786598513464,12.886105802595312 L 77.47863834978043,12.88606461292751 L 77.47868435870002,12.885910013936986 L 77.47885468836598,12.88554000353013 L 77.47889093674372,12.885472400714143 L 77.47890051656486,12.88537400551048 L 77.47889422483676,12.885270588782666 L 77.47892803426443,12.884954663128644 L 77.47895799319654,12.884783641256364 L 77.4788820278816,12.884567057443993 L 77.47884481240152,12.884536367235274 L 77.47872281310825,12.88446508895278 L 77.4787008050838,12.88437216704673 L 77.47867377570749,12.884305163507014 L 77.47863143944299,12.884290041928738 L 77.47857353473024,12.884300938589556 L 77.478520699944,12.884291090571688 L 77.47846756214629,12.884250202735993 L 77.478397990688,12.884147385138078 L 77.47842415242141,12.884126443072866 L 77.47843439645517,12.884095301084693 L 77.4784076216496,12.884054163600737 L 77.47838637719873,12.88403884226078 L 77.47831199034455,12.88398263539309 L 77.4782201591947,12.883761029605663 L 77.47814065156356,12.883720389021862 L 77.47809293778354,12.883694972224632 L 77.47803939310506,12.883612697099654 L 77.47778409036401,12.883392636276215 L 77.47752853372835,12.883146711309864 L 77.47695809573014,12.882520895579201 L 77.47618063356173,12.881757345217828 L 77.47611162299961,12.88171143269708 L 77.4759907393812,12.881667109435957 L 77.47598714472132,12.88130127818271 L 77.47598075451869,12.880650914566363 L 77.4762667798689,12.88024169564702 L 77.47647074145635,12.879914554593496 L 77.4767989997601,12.879586237717149 L 77.47708702025406,12.879380253929655 L 77.47836779294168,12.879002274092041 L 77.48006567326291,12.878904894134987 L 77.48085166608122,12.878775493752677 L 77.48143010017259,12.878607409690735 L 77.48167588639465,12.878320520351721 L 77.48175632134675,12.878138239335833 L 77.48164506662178,12.878022006692936 L 77.4815437587148,12.877909139955085 L 77.48152134093137,12.877774833590783 L 77.481393948733,12.8771551789804 L 77.48140403713211,12.877108518292296 L 77.48146143072096,12.877045886896855 L 77.48152941726062,12.876988331586798 L 77.48183563247473,12.876891957298902 L 77.48227378201204,12.87674133932698 L 77.48288451937371,12.876506605721412 L 77.48310917728973,12.876426868096457 L 77.48312857073937,12.87638787924437 L 77.48312780637447,12.87631028116896 L 77.48309551889939,12.87624461860797 L 77.48304303308181,12.876136465998078 L 77.4829586468062,12.876001452088184 L 77.4828506058614,12.875874424766778 L 77.48276679297793,12.875797611645488 L 77.4823645714084,12.875518154960464 L 77.4822410953454,12.875430076273991 L 77.48216150105664,12.875380384337506 L 77.48208198557016,12.875338454013109 L 77.48205388332649,12.875296036442249 L 77.48200740179612,12.874993806196649 L 77.48205424582143,12.874931274741114 L 77.48219474667535,12.874739804074412 L 77.48253860255119,12.874313583030803 L 77.48266727424124,12.874126105531165 L 77.48271772966923,12.874028615982395 L 77.48285801822757,12.873414185023549 L 77.48288467082209,12.87330916101288 L 77.48287991528834,12.873227717231352 L 77.48286736329898,12.873157990923906 L 77.4827260055973,12.872860538969482 L 77.48268147254191,12.872756189623589 L 77.48264519209515,12.872686688168338 L 77.48254882628594,12.87254014612177 L 77.48240915004463,12.872413415775709 L 77.48235897619695,12.872326839590432 L 77.48236240871029,12.87229761946572 L 77.48269384900286,12.872294478620073 L 77.48319180747427,12.872371062805955 L 77.48348141788975,12.87232766439477 L 77.48376942670343,12.872121675631258 L 77.48409886439934,12.871915298425568 L 77.48463665172198,12.871828894796055 L 77.48500992068304,12.871866007422119 L 77.48575645858982,12.871940226390818 L 77.48708061039663,12.871765054031783 L 77.48945133345605,12.872677511817372 L 77.49011541557367,12.872793154119309 L 77.49052971311143,12.872789215605572 L 77.49106669679581,12.872621505390532 L 77.49139612732228,12.872415117664524 L 77.49180962052299,12.872329883871348 L 77.49209882589881,12.872245829525806 L 77.4924728980895,12.872364224520076 L 77.49326689340624,12.873047736047422 L 77.49368400427154,12.873328321154872 L 77.4939748178965,12.873406855730417 L 77.49426482745173,12.873404094426704 L 77.49459626618724,12.873400938265243 L 77.49505199253663,12.873396597877003 L 77.49538504251065,12.873556029291967 L 77.49551093941696,12.873717431514402 L 77.4958081914792,12.874446317998883 L 77.49589547890338,12.87489264511568 L 77.4961050431392,12.87513455493872 L 77.49651934262448,12.875130606252842 L 77.49685078069903,12.875127446846927 L 77.4972650822934,12.875123496961836 L 77.49776224261015,12.875118756250263 L 77.49813511212803,12.875115200104414 L 77.4985498161252,12.875151894658982 L 77.4987987978079,12.875190171979561 L 77.49938083132058,12.87538787215906 L 77.49979553557961,12.875424564622467 L 77.50029511429767,12.875663699778407 L 77.50070072693619,12.875962868767877 L 77.50080355120544,12.875924003000627 L 77.50088798724113,12.875930096286236 L 77.50103597149915,12.875963173967207 L 77.50116975999747,12.875982590336358 L 77.50129631138175,12.875981381720935 L 77.50138770841707,12.875980508805338 L 77.50150006162502,12.875965638907502 L 77.50165507775147,12.875998651368397 L 77.50247391308935,12.877270702554387 L 77.50309944349762,12.878419977895042 L 77.50432218148967,12.880470898820175 L 77.50469401890112,12.881095093039976 L 77.50475736307969,12.88110138422926 L 77.50488336817307,12.881044993955712 L 77.50569908697254,12.880274994693949 L 77.50593520163126,12.880048462023622 L 77.50624249536018,12.87983856955598 L 77.50661313466145,12.879634967595589 L 77.50698411169039,12.879465857283783 L 77.5074847865079,12.879316957085132 L 77.50803139912206,12.878638524897262 L 77.50831696189613,12.878188634643129 L 77.50867769648673,12.87696566218159 L 77.50883815728862,12.876435667847918 L 77.50920495914468,12.875822394353538 L 77.5114142262782,12.87299633278363 L 77.51296665972575,12.870786321650854 L 77.51333668532627,12.870498218280002 L 77.51362546952639,12.870373495851618 L 77.51449709305636,12.870527733951254 L 77.51582929943297,12.871165351539862 L 77.52232347651541,12.874232972746048 L 77.52497981789055,12.874695180940684 L 77.52601635835353,12.874766485413483 L 77.52630473314356,12.874601103661693 L 77.52638392435338,12.874234491787295 L 77.52624986275967,12.873260182205788 L 77.52637048446884,12.872893166185358 L 77.52661579984247,12.872565601667914 L 77.5269862133049,12.872318127043291 L 77.5283476511,12.871735891076094 L 77.52875622856021,12.87116284808402 L 77.529081948899,12.87059060228839 L 77.52924277050494,12.870101251734704 L 77.52923828679722,12.869654144067823 L 77.52923054263672,12.868881869882374 L 77.52917151843099,12.867683318656857 L 77.5295111396126,12.867522357739297 L 77.52985949026046,12.867359570559133 L 77.52994537761207,12.867199314640004 L 77.52962972714788,12.86688351045944 L 77.52932182147012,12.866599916970369 L 77.52865020708647,12.865882080926022 L 77.52779715179919,12.86494869620469 L 77.5272026109967,12.864369490265853 L 77.52626862797625,12.86353491653722 L 77.52601305686512,12.863289041275724 L 77.52598095574639,12.863242786908838 L 77.5259909319206,12.863185779073964 L 77.52630773187747,12.862173856202403 L 77.52687914923386,12.860259252166234 L 77.52692019018599,12.860145035591643 L 77.5269463471807,12.860124087505069 L 77.52700434363015,12.860123528549954 L 77.52708343140743,12.860122766301288 L 77.52718898693733,12.860132096915248 L 77.52738841429797,12.860208594126828 L 77.52747252503151,12.860274874143268 L 77.52752404759616,12.860286018388155 L 77.52756758674917,12.860289479744768 L 77.52765454139664,12.86028476040122 L 77.52772932662724,12.86024911668804 L 77.52778426042106,12.860205904506138 L 77.52784726003216,12.860178134226828 L 77.5279223148541,12.86016965076724 L 77.52800907985561,12.860145532395586 L 77.52875924573475,12.860021891706348 L 77.52905900498527,12.859941392952539 L 77.5290623358494,12.85987927755352 L 77.52895393391483,12.859717352792785 L 77.52833152259369,12.858776567473791 L 77.52806195537198,12.85831741342562 L 77.52806567742675,12.858294095719298 L 77.52806544429953,12.858270816143438 L 77.52808494585983,12.858243465237758 L 77.52815526547717,12.858157424474134 L 77.52837085734085,12.857943905991368 L 77.52884335424,12.857651502952482 L 77.52958872811573,12.857313197265087 L 77.53021412716112,12.857105390097441 L 77.53034030331845,12.857067957117954 L 77.53041417136484,12.857072416068984 L 77.53049336170754,12.857082002256554 L 77.53055709672334,12.857127950834993 L 77.53059013091467,12.857267320464949 L 77.53056129678426,12.857546977794698 L 77.53049417192477,12.858215032814652 L 77.53048513013874,12.858365154117829 L 77.53050762139695,12.858504627778297 L 77.53063163692822,12.858777636059896 L 77.53088974774447,12.859276993760897 L 77.53130857661641,12.86002831078291 L 77.53183643841777,12.861135555337185 L 77.53189035801213,12.861254029247663 L 77.53197278076047,12.861333322399075 L 77.53201238422818,12.861212811984663 L 77.53200586006167,12.860562475353989 L 77.53216870945377,12.860276354540371 L 77.53241441489016,12.859989431126799 L 77.53266134094295,12.859824448561735 L 77.53311743966647,12.859860691962645 L 77.5333668126481,12.859939581372728 L 77.53353700600178,12.860385086775498 L 77.53358925486327,12.860527054699999 L 77.53398080331318,12.861310096328733 L 77.53465093555877,12.862405611699513 L 77.53480225040764,12.862608600246238 L 77.53494424908119,12.862733888803515 L 77.53512863366952,12.862716586145595 L 77.53540602865009,12.862572513225125 L 77.53583791889419,12.862598583931593 L 77.53588302105565,12.86296399582281 L 77.53568569241824,12.863941501448933 L 77.53571642508973,12.864066524220329 L 77.53583316552354,12.864085968138482 L 77.53588625588918,12.86412166996288 L 77.5358924126122,12.864209563183568 L 77.53590945059858,12.864333080862929 L 77.53590279201758,12.864586493796477 L 77.53597541006762,12.864591862580598 L 77.53602405057454,12.86462927501035 L 77.53627343129403,12.864708160555278 L 77.536438731001,12.864665911722323 L 77.53668647492911,12.864582215656704 L 77.53683138917437,12.864509362974037 L 77.53713104954103,12.864519995338728 L 77.53730747228747,12.864535555696207 L 77.53735265255048,12.864533372093568 L 77.53736893940356,12.864579777754265 L 77.53740063793782,12.86497913556797 L 77.53743916782388,12.86605747177477 L 77.537853918408,12.866006892581302 L 77.53790857980952,12.867050022374572 L 77.53803708190887,12.867048777883017 L 77.53836849874571,12.86704556795251 L 77.53853420830906,12.867043962819064 L 77.53882665492762,12.867285024936947 L 77.53882951844326,12.867569546141047 L 77.53908258241324,12.868014242198548 L 77.53941441414348,12.86805167586948 L 77.53955529635985,12.868050310568542 L 77.5395973841164,12.868302628307715 L 77.5395505548875,12.868365164940567 L 77.53926673019166,12.86845716095194 L 77.53938625404675,12.868937152381545 L 77.5394064165323,12.868975760455928 L 77.53944216352711,12.868990933553826 L 77.5394934927114,12.868982676318442 L 77.53970296708356,12.868969005248731 L 77.54059369317196,12.8688729035603 L 77.5406768206851,12.869456235401936 L 77.54085009262272,12.869439042606928 L 77.54112613148595,12.869382660231038 L 77.54112178867969,12.869264215083346 L 77.54116357815498,12.868996071463727 L 77.54134575538978,12.869119443748655 L 77.54138134847233,12.869119098531012 L 77.54143182670474,12.8691244281749 L 77.5421904429528,12.869053045868563 L 77.54270301104219,12.868995689994446 L 77.54310604962227,12.868985295547498 L 77.54352331732987,12.868962989747793 L 77.54352253182999,12.868697142170392 L 77.54347257827827,12.86824564196913 L 77.54350546936159,12.867977584801002 L 77.5437574639699,12.867474589939484 L 77.54382801883031,12.867411822454148 L 77.54388725792123,12.867403485340771 L 77.54422679307244,12.867345866262966 L 77.54508933487672,12.866992151026606 L 77.54542781191077,12.866829773934878 L 77.54547131272442,12.866829351410825 L 77.54548728566282,12.866844718052436 L 77.54548453400045,12.86738292134028 L 77.54683134342463,12.866753435447755 L 77.54732737139567,12.86664021649449 L 77.54732748488789,12.86664025008461 z" /></g></svg>